<?xml version="1.0" encoding="utf-8"?>
<!-- Generator: Adobe Illustrator 23.0.2, SVG Export Plug-In . SVG Version: 6.00 Build 0)  -->
<!DOCTYPE svg PUBLIC "-//W3C//DTD SVG 1.1//EN" "http://www.w3.org/Graphics/SVG/1.1/DTD/svg11.dtd" [
	<!ENTITY ns_flows "http://ns.adobe.com/Flows/1.0/">
	<!ENTITY ns_extend "http://ns.adobe.com/Extensibility/1.0/">
	<!ENTITY ns_ai "http://ns.adobe.com/AdobeIllustrator/10.0/">
	<!ENTITY ns_graphs "http://ns.adobe.com/Graphs/1.0/">
	<!ENTITY ns_vars "http://ns.adobe.com/Variables/1.0/">
	<!ENTITY ns_imrep "http://ns.adobe.com/ImageReplacement/1.0/">
	<!ENTITY ns_sfw "http://ns.adobe.com/SaveForWeb/1.0/">
	<!ENTITY ns_custom "http://ns.adobe.com/GenericCustomNamespace/1.0/">
	<!ENTITY ns_adobe_xpath "http://ns.adobe.com/XPath/1.0/">
]>
<svg version="1.1" xmlns:x="&ns_extend;" xmlns:i="&ns_ai;" xmlns:graph="&ns_graphs;"
	 xmlns="http://www.w3.org/2000/svg" xmlns:xlink="http://www.w3.org/1999/xlink" xmlns:a="http://ns.adobe.com/AdobeSVGViewerExtensions/3.0/"
	 x="0px" y="0px" viewBox="0 0 1500 625" enable-background="new 0 0 1500 625" xml:space="preserve">
<metadata>
	<sfw  xmlns="&ns_sfw;">
		<slices></slices>
		<sliceSourceBounds  bottomLeftOrigin="true" height="5661.035" width="8462.062" x="-7196.062" y="-910.035"></sliceSourceBounds>
	</sfw>
</metadata>
<g id="FILL-BACKGROUND">
	<rect fill="#FFFFFF" width="1500" height="625"/>
</g>
<g id="N-DIMENSIONS">
</g>
<g id="N-TEXT">
</g>
<g id="AG-DIAGRAM">
	<g id="POLYLINE_579_">
		<g>
			<g>
				
					<line fill="none" stroke="#FB8604" stroke-width="3.25" stroke-linecap="round" stroke-linejoin="round" x1="1428.683" y1="540.983" x2="1426.683" y2="540.983"/>
				
					<line fill="none" stroke="#FB8604" stroke-width="3.25" stroke-linecap="round" stroke-linejoin="round" stroke-dasharray="3.9849,6.9736" x1="1419.709" y1="540.983" x2="86.256" y2="540.983"/>
				
					<line fill="none" stroke="#FB8604" stroke-width="3.25" stroke-linecap="round" stroke-linejoin="round" x1="82.769" y1="540.983" x2="80.769" y2="540.983"/>
			</g>
		</g>
	</g>
</g>
<g id="AG-DETAILS">
</g>
<g id="AG-PEOPLE">
</g>
<g id="AG-ANIMALS">
	<g id="POLYLINE_578_">
		
			<path fill="none" stroke="#FB8604" stroke-width="2.5" stroke-linecap="round" stroke-linejoin="round" stroke-miterlimit="10" d="
			M745.875,276.963c-0.687,4.094-1.318,8.198-1.774,12.325c-0.477,4.32-0.831,8.647-1.021,12.989
			c-0.19,4.327-0.204,8.659-0.065,12.987c0.139,4.299,0.459,8.596,0.9,12.874c0.441,4.275,0.987,8.546,1.674,12.788
			c0.746,4.609,1.581,9.197,2.482,13.778c0.913,4.645,1.984,9.264,2.979,13.892c0.812,3.779,1.654,7.554,2.293,11.367
			c0.704,4.202,0.865,8.486,1.679,12.667c0.775,3.979,2.39,7.696,3.912,11.432c1.594,3.913,3.21,7.818,4.343,11.896
			c1.166,4.198,1.793,8.532,2.149,12.868c0.372,4.519,0.398,9.052,0.448,13.583c0.042,3.832,0.258,7.64,1.641,11.255
			c1.465,3.83,3.67,7.327,5.2,11.13c1.523,3.784,2.156,7.803,2.61,11.836c0.49,4.354,1.005,8.719,1.347,13.087
			c0.307,3.916,0.138,7.682-0.619,11.539c-0.64,3.26-1.23,6.309-0.257,9.55c0.731,2.434,2.376,5.072,1.695,7.7
			c-0.354,1.365-1.109,2.596-1.638,3.894c-0.526,1.292-0.764,2.63-0.833,4.019c-0.108,2.167-0.022,4.352-0.006,6.52
			c0.012,1.718-0.127,3.53,0.114,5.242c0.22,1.561,1.192,2.214,2.67,2.461c1.91,0.318,3.913,0.293,5.845,0.342
			c1.888,0.048,3.808,0.062,5.681-0.21c1.691-0.246,3.284-0.803,3.727-2.609c0.284-1.161,0.159-2.435,0.157-3.615
			c-0.004-2.161,0.029-4.327-0.122-6.484c-0.104-1.488-0.329-2.95-0.802-4.367c-0.559-1.673-1.378-3.25-1.876-4.945
			c-0.714-2.429-0.343-4.657,0.654-6.94c1.055-2.416,1.379-4.602,0.885-7.236c-0.735-3.914-2.633-7.523-3.552-11.399
			c-0.987-4.167-1.291-8.508-1.386-12.779c-0.091-4.096-0.136-8.231,0.443-12.297c0.588-4.13,1.947-8.087,2.894-12.138
			c0.872-3.728,1.455-7.685,0.954-11.51c-0.459-3.501-2.567-6.407-3.781-9.661c-1.432-3.841-2.207-7.859-2.981-11.872
			c-0.834-4.32-1.903-8.593-2.71-12.916c-0.726-3.889-0.982-7.845-0.938-11.798c0.051-4.559,0.569-9.106,0.967-13.643
			c0.066-0.753,0.064-5.069,1.679-4.713c1.123,0.247,2.053,1.63,2.946,2.268c0.723,0.516,1.539,0.912,2.439,0.961
			c1.966,0.106,3.554-1.37,5.425-1.678c1.957-0.322,2.387,2.718,2.708,4.023c0.912,3.71,1.176,7.5,0.82,11.301
			c-0.382,4.085-0.858,8.145-1.005,12.249c-0.172,4.788-0.273,9.579-0.465,14.366c-0.154,3.842-0.306,7.804-1.29,11.54
			c-0.478,1.814-1.218,3.563-1.5,5.425c-0.25,1.649-0.218,3.342-0.093,5.001c0.149,1.962,0.436,3.933,0.954,5.834
			c0.529,1.937,1.402,3.705,2.301,5.491c1.735,3.451,2.364,6.961,2.608,10.794c0.266,4.177,0.294,8.375,0.273,12.559
			c-0.021,4.047,0.252,8.428-0.781,12.38c-0.681,2.604-2.472,4.763-2.988,7.419c-0.592,3.05-0.27,6.646,0.589,9.625
			c0.645,2.239,2.087,4.144,1.39,6.552c-0.912,3.15-3.075,5.891-3.632,9.166c-0.261,1.536-0.096,3.158-0.065,4.705
			c0.04,2.023,0.087,4.051,0.32,6.063c0.198,1.706,0.464,4.077,2.36,4.725c1.241,0.424,2.711,0.295,3.994,0.304
			c2.129,0.014,4.267-0.008,6.388-0.193c1.883-0.164,4.163-0.309,4.99-2.293c1.096-2.629,0.82-6.008,0.809-8.785
			c-0.012-2.766,0.252-6.159-1.161-8.67c-0.944-1.677-2.285-3.04-2.67-4.977c-0.43-2.164,0.308-3.813,1.324-5.676
			c0.966-1.77,1.595-3.619,1.434-5.649c-0.257-3.229-1.779-6.175-1.864-9.439c-0.116-4.469,0.505-9.007,0.839-13.455
			c0.343-4.582,0.572-9.175,0.852-13.762c0.214-3.506,0.433-7.075,1.847-10.339c0.799-1.844,1.806-3.597,2.391-5.528
			c0.444-1.467,0.656-3,0.748-4.528c0.238-3.973-0.524-7.853-0.831-11.797c-0.322-4.13-0.108-8.3,0.206-12.424
			c0.334-4.385,0.823-8.756,1.419-13.113c0.563-4.116,1.288-8.218,2.255-12.259c0.992-4.147,2.39-8.183,3.379-12.329
			c0.899-3.768,1.22-7.609,1.312-11.473c0.106-4.502,0.181-8.985,0.595-13.473c0.434-4.708,0.974-9.408,1.473-14.11
			c0.428-4.035,0.824-8.07,1.081-12.12c0.264-4.156,0.407-8.323,0.465-12.486c0.06-4.384,0.033-8.768,0.026-13.152
			c-0.007-4.264-0.014-8.527-0.02-12.791"/>
	</g>
	<g id="POLYLINE_577_">
		
			<path fill="none" stroke="#FB8604" stroke-width="2.5" stroke-linecap="round" stroke-linejoin="round" stroke-miterlimit="10" d="
			M742.474,373.663c1.581,4.748,3.212,9.475,5.423,13.974c2.241,4.558,4.75,8.927,5.968,13.901
			c1.213,4.953,1.194,10.052,1.73,15.096c0.521,4.902,1.704,9.62,3.244,14.292c0.757,2.297,1.423,4.586,1.641,7.004
			c0.216,2.385,0.155,4.788,0.133,7.179c-0.052,5.759,0.119,11.516,0.235,17.275c0.096,4.775,0.067,9.557-0.055,14.332
			c-0.141,5.497-0.351,10.992-0.712,16.479c-0.164,2.489-0.368,4.979-0.696,7.453c-0.31,2.332-0.937,4.537-1.42,6.829
			c-0.628,2.978,0.748,5.937,0.392,8.932c-0.478,4.021-3.363,7.323-4.229,11.246c-0.338,1.53-0.134,3.088-0.363,4.627
			c-0.265,1.775-0.817,3.514-0.721,5.329c0.112,2.138,1.451,3.187,3.49,3.413c2.283,0.253,4.686,0.083,6.979,0.041
			c0.999-0.018,2.064-0.077,2.989-0.498c1.9-0.864,2.691-3.164,3.263-4.994c0.346-1.107,0.628-2.234,0.881-3.366
			c0.109-0.486,0.386-1.134,0.339-1.626c-0.023-0.242-0.082-0.185-0.171-0.394c-0.644-1.521-0.823-3.269-0.794-4.914
			c0.02-1.14,0.204-2.251,0.626-3.314c0.687-1.731,1.825-3.245,2.438-5.01c0.666-1.92,0.831-3.994,0.853-6.013
			c0.013-1.205-0.435-2.279-0.747-3.435c-0.294-1.09-0.539-2.193-0.71-3.31c-0.67-4.381-0.304-8.949-0.215-13.362
			c0.13-6.413,0.251-12.826,0.391-19.238c0.048-2.175,0.111-4.349,0.167-6.524"/>
	</g>
	<g id="POLYLINE_576_">
		
			<path fill="none" stroke="#FB8604" stroke-width="2.5" stroke-linecap="round" stroke-linejoin="round" stroke-miterlimit="10" d="
			M801.64,153.789c-0.713-1.549-1.42-2.939-2.477-4.281c-0.565-0.717-1.394-1.493-1.781-2.342c-0.179-0.393-0.205-0.481,0.23-0.48
			c0.616,0.001,1.949,1.048,2.489,0.346c0.195-0.254,0.116-0.734,0.093-1.023c-0.086-1.069-0.297-2.129-0.419-3.194
			c-0.073-0.637-0.238-1.403-0.128-2.049c0.07-0.41,0.105-0.516,0.439-0.209c0.926,0.85,0.948,2.65,1.965,3.407
			c0.342,0.254,0.378,0.139,0.466-0.25c0.175-0.766,0.024-1.656,0.042-2.43c0.004-0.196-0.053-0.931,0.237-0.913
			c0.392,0.024,0.984,1.636,1.144,1.906c1.811,3.062,1.722-2.287,2.652-1.728c0.691,0.416,0.437,2.704,1.357,2.866
			c0.854,0.151,0.947-2.037,1.699-2.214c1.535-0.363,1.452,6.359,1.4,7.153c-0.064,0.99,0.043,5.343,1.748,2.971
			c0.075-0.104,0.697-1.313,0.991-1.259c0.311,0.058,0.312,1.287,0.339,1.44c0.139,0.79,0.378,1.389,1.27,1.352
			c0.769-0.032,1.661-0.574,2.137,0.263c0.437,0.768,0.412,1.49,1.096,2.129c0.344,0.321,0.75,0.578,1.146,0.828"/>
	</g>
	<g id="POLYLINE_575_">
		
			<path fill="none" stroke="#FB8604" stroke-width="2.5" stroke-linecap="round" stroke-linejoin="round" stroke-miterlimit="10" d="
			M812.909,277.447c-0.662-4.561-0.312-9.23,1.257-13.581c1.593-4.417,4.468-8.212,7.849-11.424c2.495-2.37,5.521-4.915,8.964-5.696
			c2.478-0.562,4.443,0.48,6.845,0.944c1.858,0.359,3.695-0.707,5.477,0.083c0.258,0.114,0.507,0.251,0.754,0.388"/>
	</g>
	<g id="POLYLINE_574_">
		
			<path fill="none" stroke="#FB8604" stroke-width="2.5" stroke-linecap="round" stroke-linejoin="round" stroke-miterlimit="10" d="
			M763.582,244.541c1.345-2.52,2.704-5.029,3.733-7.699c0.94-2.439,1.584-4.969,2.099-7.528c0.6-2.984,1.087-6.004,1.848-8.954
			c0.672-2.608,1.935-4.775,3.096-7.176c1.239-2.564,1.856-5.399,2.695-8.105c0.717-2.316,1.644-4.55,2.588-6.78
			c2.486-5.873,4.831-11.823,7.767-17.49c0.57-1.101,1.168-2.281,1.172-3.552c0.005-1.447-0.779-2.797-1.502-3.998
			c-1.411-2.343-2.887-4.534-3.89-7.093c-0.977-2.493-1.767-5.069-3.149-7.38c-2.836-4.743-7.606-7.941-10.652-12.527
			c-1.455-2.19-2.357-4.648-3.205-7.12c-0.913-2.661-1.888-5.26-3.106-7.8c-1.593-3.322-4.196-6.921-3.457-10.795
			c0.299-1.57,1.12-3.799,3.12-3.304c1.564,0.387,2.936,1.714,4.038,2.811c1.963,1.955,3.566,4.214,5.166,6.465
			c1.508,2.122,3.044,4.172,4.985,5.923c2.119,1.912,4.414,3.614,6.497,5.568c4.15,3.893,7.519,8.55,11.717,12.394
			c2.638,2.415,5.191,3.559,8.775,3.438c2.495-0.085,4.992-0.396,7.484-0.08c2.328,0.295,4.501,1.202,6.73,1.885
			c2.065,0.633,4.468,1.075,6.351-0.29c0.942-0.683,1.548-1.711,2.022-2.753c1.178-2.588,1.818-5.404,2.801-8.068
			c1.94-5.26,4.778-10.144,9.366-13.508c1.861-1.364,3.957-2.578,6.196-3.191c0.913-0.25,1.968-0.452,2.894-0.151
			c1.015,0.33,1.538,1.247,1.804,2.226c0.584,2.145,0.37,4.531,0.212,6.714c-0.209,2.892-0.508,5.796-0.885,8.671
			c-0.281,2.141-0.63,4.338-1.507,6.328c-0.994,2.256-2.687,4.117-3.8,6.312c-1.07,2.11-1.769,4.42-2.258,6.728
			c-0.477,2.252-0.791,4.604-0.605,6.908c0.151,1.876,0.75,3.62,1.48,5.345c1.295,3.056,2.575,6.122,3.914,9.159
			c0.891,2.021,1.852,3.999,3.259,5.715c1.829,2.231,3.424,4.456,3.26,7.46c-0.117,2.14-0.975,4.071-2.651,5.423
			c-1.225,0.988-2.558,1.718-3.078,3.288c-0.522,1.577-0.354,3.357-0.219,4.978c0.249,2.988,0.559,5.967,0.522,8.97
			c-0.031,2.564-0.329,5.109-0.736,7.638c-0.971,6.042-2.11,12.077-2.399,18.202c-0.258,5.447,0.285,10.811,1.594,16.105
			c0.719,2.907,1.682,5.732,2.639,8.567c0.661,1.957,1.396,4.011,1.469,6.097c0.096,2.753-1.599,4.6-3.604,6.285
			c-1.94,1.631-3.98,3.14-5.417,5.263c-1.087,1.606-1.635,3.755-3.064,5.103c-0.745,0.703-1.715,1.004-2.711,1.146
			c-2.297,0.327-4.683,0.035-6.971-0.234c-2.011-0.236-4.236-0.265-6.149-1.02c-1.218-0.48-2.224-1.33-3.097-2.29
			c-1.596-1.755-2.827-3.875-3.706-6.071c-0.963-2.407-1.301-4.952-1.763-7.486c-0.271-1.483-0.628-2.958-1.433-4.251
			c-0.978-1.572-2.439-2.771-3.864-3.92c-4.614-3.716-9.315-7.224-13.478-11.462c-3.815-3.884-7.689-8.128-9.952-13.136
			c-2.263-5.01-3.21-10.658-3.617-16.107c-0.387-5.173-0.223-10.459,0.966-15.525"/>
	</g>
	<g id="POLYLINE_573_">
		
			<path fill="none" stroke="#FB8604" stroke-width="2.5" stroke-linecap="round" stroke-linejoin="round" stroke-miterlimit="10" d="
			M753.135,378.769c-6.635-2.63-12.716-6.006-18.306-10.461c-5.591-4.455-10.67-9.645-14.784-15.502
			c-3.929-5.594-6.757-11.846-8.569-18.428c-1.87-6.793-2.676-13.88-2.536-20.919c0.144-7.195,1.224-14.391,3.098-21.337
			c0.955-3.54,2.328-6.916,3.459-10.397c1.013-3.118,1.369-6.295,1.446-9.562c0.16-6.849-0.109-13.757,1.926-20.387
			c1.875-6.111,5.682-11.188,10.278-15.553c5.266-5.001,11.328-9.043,17.949-12.017c3.209-1.442,6.493-2.737,9.832-3.845
			c3.192-1.06,6.514-2.046,9.897-2.179c1.675-0.066,3.337,0.103,5.002,0.256"/>
	</g>
	<g id="POLYLINE_572_">
		
			<path fill="none" stroke="#FB8604" stroke-width="2.5" stroke-linecap="round" stroke-linejoin="round" stroke-miterlimit="10" d="
			M811.906,466.126c0.716,8.592,1.2,17.31,2.765,25.8c0.318,1.723,0.698,3.453,1.377,5.075c0.54,1.29,1.337,2.47,1.786,3.797
			c0.786,2.322,0.199,4.839,0.611,7.218c0.182,1.053,0.635,1.986,1.188,2.891c1.168,1.912,2.404,3.78,3.529,5.719
			c2.01,3.466,2.818,7.109,3.702,10.985c0.468,2.051,0.997,4.079,1.545,6.11c0.314,1.163,0.672,2.37,0.681,3.585
			c0.013,1.671-1.002,2.751-2.562,3.218c-1.239,0.371-2.574,0.415-3.856,0.442c-1.946,0.042-3.922-0.007-5.848-0.303
			c-1.688-0.259-3.171-0.67-3.713-2.435c-0.183-0.595-0.287-1.215-0.386-1.828"/>
	</g>
	<g id="POLYLINE_571_">
		
			<path fill="none" stroke="#FB8604" stroke-width="2.5" stroke-linecap="round" stroke-linejoin="round" stroke-miterlimit="10" d="
			M824.908,363.067c1.782-4.009,3.293-8.009,4.44-12.248c1.253-4.632,2.312-9.313,3.414-13.982c0.958-4.057,1.85-8.135,2.452-12.261
			c0.663-4.539,1.14-9.108,1.426-13.687c0.272-4.368,0.255-8.725-0.06-13.09c-0.044-0.615-0.089-1.229-0.133-1.844"/>
	</g>
	<g id="POLYLINE_570_">
		
			<path fill="none" stroke="#FB8604" stroke-width="2.5" stroke-linecap="round" stroke-linejoin="round" stroke-miterlimit="10" d="
			M631.942,292.342c2.638-0.18,4.691-0.843,6.461-2.87c1.609-1.842,2.808-4.041,4.024-6.149c1.104-1.915,2.149-3.875,2.878-5.968
			c1.672-4.801,1.611-10.048,0.537-14.972c-1.159-5.313-3.369-10.501-6.684-14.83c-3.26-4.257-7.242-7.88-10.417-12.219
			c-3.258-4.452-6.077-9.22-8.739-14.047c-2.723-4.937-5.31-9.962-7.633-15.1c-1.271-2.812-2.421-5.666-3.572-8.529
			c-0.912-2.269-1.908-4.512-3.303-6.532c-1.539-2.23-3.46-4.161-5.332-6.107c-1.894-1.969-3.621-4.028-5.379-6.118
			c-3.168-3.764-7.242-6.675-11.569-8.973c-1.117-0.593-2.259-1.135-3.424-1.626"/>
	</g>
	<g id="POLYLINE_569_">
		
			<path fill="none" stroke="#FB8604" stroke-width="2.5" stroke-linecap="round" stroke-linejoin="round" stroke-miterlimit="10" d="
			M603.105,288.73c0.664-3.798,1.495-7.507,3.019-11.065c1.537-3.59,3.521-6.991,5.632-10.269
			c4.619-7.173,10.138-13.583,15.791-19.946c2.06-2.319,3.915-4.247,6.892-5.299"/>
	</g>
	<g id="POLYLINE_560_">
		
			<path fill="none" stroke="#FB8604" stroke-width="2.5" stroke-linecap="round" stroke-linejoin="round" stroke-miterlimit="10" d="
			M550.367,178.533c1.637-5.267,3.698-10.37,6.361-15.206c2.597-4.716,5.694-9.177,9.182-13.278
			c3.476-4.087,7.487-7.52,11.503-11.055c3.992-3.513,7.372-7.47,10.49-11.77c3.003-4.141,5.767-8.943,9.644-12.363
			c0.499-0.44,1.693-1.583,2.304-0.749c0.613,0.837,0.237,2.693,0.135,3.562c-0.612,5.22-2.025,10.432-3.692,15.406
			c-1.613,4.815-3.687,9.334-6.676,13.456c-1.514,2.089-3.105,4.137-4.345,6.407c-1.272,2.328-2.192,4.841-3.018,7.357
			c-1.751,5.339-3.349,10.692-5.258,15.98c-0.435,1.206-0.871,2.412-1.306,3.618"/>
	</g>
	<g id="POLYLINE_559_">
		
			<path fill="none" stroke="#FB8604" stroke-width="2.5" stroke-linecap="round" stroke-linejoin="round" stroke-miterlimit="10" d="
			M142.5,243.4c-1.344,3.558-2.636,7.141-4.066,10.666c-1.324,3.264-2.926,6.386-4.44,9.563c-1.418,2.976-2.671,6.03-3.476,9.234
			c-0.82,3.264-1.216,6.627-1.422,9.982c-0.452,7.352,0.008,14.723,0.669,22.047c0.669,7.41,1.728,14.781,2.256,22.205
			c0.521,7.323,0.542,14.675,1.089,21.997c0.257,3.443,0.969,6.873,1.031,10.325c0.057,3.199-0.859,6.142-2.336,8.956
			c-0.844,1.609-1.811,3.157-2.863,4.639c-0.75,1.056-1.542,2.233-2.548,3.067c-0.611,0.507-0.766,0.253-0.67-0.454
			c0.214-1.578,0.658-3.132,0.905-4.708c0.254-1.619,0.517-3.281,0.532-4.922c0.005-0.498-0.02-1.241-0.435-0.479
			c-0.648,1.19-0.951,2.678-1.331,3.967c-0.537,1.823-1.012,3.663-1.549,5.485c-0.613,2.08-1.568,3.675-3.042,5.274
			c-0.907,0.984-1.882,1.948-2.962,2.742c-0.245,0.18-1.019,0.842-1.372,0.616c-0.374-0.241,0.057-1.252,0.151-1.537
			c0.551-1.664,1.305-3.254,1.845-4.924c0.941-2.909,1.182-5.912,1.201-8.954c0.012-1.875-0.031-3.75-0.107-5.624
			c-0.058-1.423-0.048-2.945-0.357-4.342c-0.223-1.012-0.461-0.071-0.579,0.475c-0.413,1.915-0.677,3.867-1.007,5.797
			c-0.527,3.082-1.148,6.247-2.432,9.116c-0.295,0.66-1.231,2.978-2.313,2.547c-0.518-0.206-0.741-1.069-0.886-1.535
			c-0.41-1.322-0.597-2.718-0.793-4.084c-0.518-3.616-1.072-7.246-1.295-10.894c-0.218-3.571,0.079-7.105,0.365-10.662
			c0.096-1.195,0.414-2.642,0.176-3.834c-0.158-0.789-0.525-0.274-0.813,0.177c-0.771,1.21-1.291,2.57-2.089,3.764
			c-0.292,0.436-0.696,0.998-0.938,0.241c-0.325-1.019-0.044-2.437,0.047-3.462c0.168-1.89,0.421-3.772,0.687-5.65
			c1.082-7.647,2.809-15.146,4.497-22.676c1.436-6.408,2.669-12.836,3.404-19.366c0.896-7.961,1.648-15.947,3.037-23.842
			c1.23-6.991,3.116-13.891,5.441-20.594c2.415-6.963,5.281-13.754,8.671-20.299c1.779-3.435,3.689-6.801,5.568-10.182
			c1.651-2.972,3.126-6.02,4.718-9.022c2.514-4.738,6.834-7.979,12.078-9.155c3.403-0.763,6.881-1.131,10.285-1.908
			c3.264-0.745,6.491-1.642,9.726-2.5c7.413-1.968,14.823-4.169,22.384-5.514c6.983-1.243,13.849-1.336,20.76,0.399
			c7.027,1.764,13.721,4.462,20.898,5.66c4.538,0.758,9.125,1.256,13.688,1.832c9.555,1.207,19.11,2.415,28.665,3.622
			c10.689,1.351,21.377,2.701,32.066,4.052c5.995,0.757,11.989,1.518,17.984,2.272c6.322,0.795,12.66,1.262,19.028,1.482
			c7.376,0.255,14.765,0.272,22.144,0.184c7.361-0.089,14.704-0.32,22.054-0.72c3.838-0.209,7.683-0.514,11.527-0.574
			c3.759-0.058,7.443,0.389,11.168,0.836c3.374,0.405,6.759,0.727,10.162,0.628c3.424-0.1,6.808-0.624,10.143-1.389
			c7.074-1.621,13.908-4.178,20.626-6.889c7.113-2.871,14.124-5.981,21.12-9.124c6.565-2.95,13.031-6.13,19.473-9.336
			c6.021-2.996,12.007-6.057,17.97-9.167c7.449-3.885,14.847-7.888,22.378-11.614c2.896-1.433,5.872-2.81,8.967-3.757
			c3.032-0.927,6.083-1.02,9.23-1.062"/>
	</g>
	<g id="POLYLINE_558_">
		
			<path fill="none" stroke="#FB8604" stroke-width="2.5" stroke-linecap="round" stroke-linejoin="round" stroke-miterlimit="10" d="
			M150.588,416.583c-2.641,3.003-4.722,6.502-6.479,10.081c-1.664,3.389-3.175,6.981-3.712,10.742
			c-0.474,3.32-0.546,6.732-0.761,10.077c-0.394,6.144-0.788,12.288-1.183,18.432c-0.222,3.467-0.464,6.93-0.506,10.405
			c-0.051,4.212,0.629,8.274,1.034,12.449c0.192,1.979,0.053,3.888-0.035,5.867c-0.042,0.952-0.021,1.91,0.228,2.835
			c0.777,2.893,3.133,5.179,5.014,7.383c1.575,1.844,2.581,3.577,2.686,6.024c0.102,2.379-0.139,4.748,0.993,6.919
			c0.835,1.601,1.962,3.04,2.843,4.62c0.993,1.782,2.024,3.456,3.265,5.076c1.814,2.369,3.608,5.012,3.929,8.065
			c0.663,6.319-7.406,5.42-11.392,5.431c-3.682,0.01-7.631,0.287-11.238-0.591c-2.327-0.567-3.304-2.649-4.951-4.209
			c-1.536-1.455-3.133-2.823-4.558-4.39c-0.798-0.878-1.923-1.672-2.439-2.77c-0.854-1.817,0.15-4.343,0.717-6.059
			c0.935-2.832,1.396-5.133,0.667-8.09c-0.563-2.285-1.439-3.821-3.519-4.962c-4.789-2.627-6.832-8.656-6.373-13.839
			c0.352-3.976,1.519-7.831,1.936-11.805c0.499-4.76,0.958-9.524,1.439-14.285c0.809-7.999,1.105-15.955,1.274-23.987
			c0.197-9.358,0.745-18.795,0.353-28.155c-0.175-4.173-0.74-8.353-0.606-12.535c0.103-3.23,0.945-6.145,2.494-8.98
			c1.749-3.202,3.827-6.235,5.861-9.261c2.995-4.456,5.997-8.907,8.984-13.367c2.151-3.212,4.162-6.517,5.588-10.122
			c1.461-3.697,2.339-7.583,2.896-11.512c1.222-8.626,1.303-17.379,1.051-26.072c-0.242-8.36-0.934-16.861-2.873-25.013
			c-1.062-4.466-2.617-8.789-4.074-13.137c-1.305-3.895-2.379-7.873-3.259-11.885c-0.863-3.934-1.535-7.901-2.099-11.887"/>
	</g>
	<g id="POLYLINE_557_">
		
			<path fill="none" stroke="#FB8604" stroke-width="2.5" stroke-linecap="round" stroke-linejoin="round" stroke-miterlimit="10" d="
			M438.664,213.15c-1.225-1.508-2.275-2.894-3.862-4.048c-0.802-0.583-1.67-1.123-2.399-1.801c-0.206-0.192-0.626-0.535-0.609-0.856
			c0.074-1.41,5.507-0.321,4.172-2.392c-0.423-0.657-1.725-1.622-0.55-2.202c1.337-0.661,3.281-0.488,4.712-0.524
			c2.657-0.068,5.388,0.002,8.016-0.46c0.975-0.171,2.626-0.454,2.968-1.577c0.545-1.79-2.114-3.748-0.707-5.44
			c0.976-1.174,2.839-1.559,4.137-2.195c1.132-0.555,1.778-1.374,2.686-2.225c0.716-0.671,1.525-0.864,2.495-0.847
			c1.975,0.034,3.941,0.659,5.824,1.193c1,0.283,2.055,0.686,3.095,0.809c0.463,0.055,0.686,0.067,0.442-0.391
			c-0.358-0.67-1.158-1.178-1.636-1.784c-0.277-0.352-0.527-0.726-0.71-1.137c-0.282-0.635-0.594-1.805,0.439-1.794
			c1.034,0.011,2.03,0.889,3.088,0.704c1.071-0.187,0.901-1.57,1.574-2.185c0.684-0.625,1.884,0.02,2.569,0.321
			c1.193,0.524,2.526,1.355,3.889,1.3c1.181-0.048,2.178-0.795,3.285-1.125c0.599-0.178,1.22-0.253,1.839-0.325
			c0.513-0.06,1.565-0.011,2.018-0.381c0.832-0.68-1.033-2.034-1.484-2.416c-0.819-0.693-1.733-1.293-2.497-2.049
			c-0.253-0.25-0.677-0.638-0.616-1.043c0.108-0.718,1.366-0.847,1.913-0.883c0.906-0.06,1.803,0.099,2.661,0.383
			c0.47,0.155,0.927,0.347,1.382,0.542c0.23,0.099,0.884,0.53,1.188,0.489c0.517-0.069-0.328-0.899-0.511-1.157
			c-0.425-0.597-1.301-1.643-0.327-2.126c0.874-0.433,2.234-0.191,2.735-1.217c0.379-0.775-0.087-2.108,0.733-2.626
			c0.979-0.618,3.12,0.224,4.017,0.406c2.329,0.472,4.036-0.055,4.89-2.46c0.283-0.798,0.358-1.577-0.099-2.314
			c-0.555-0.895-0.741-1.343,0.384-1.82c2.05-0.869,4.055,0.062,5.628,1.407c0.357,0.305,2.289,2.568,2.285,0.986
			c-0.004-1.325-0.644-2.783-1.265-3.916c-0.255-0.465-2.127-2.579-0.787-2.621c0.848-0.027,1.829,0.518,2.54,0.939
			c1.667,0.987,2.91,2.534,4.532,3.561c0.316,0.2,0.548,0.378,0.701-0.025c0.223-0.587-0.326-1.815-0.432-2.362
			c-0.156-0.81-0.603-2.722,0.133-3.4c0.83-0.765,2.793,1.291,3.315,1.652c0.443,0.307,1.538,1.159,1.847,0.332
			c0.12-0.323-0.001-0.799-0.049-1.125c-0.173-1.166-0.48-2.31-0.662-3.475c-0.123-0.784-0.615-2.89,0.024-3.619
			c0.687-0.783,1.46,1.248,2.088,1.294c0.823,0.06,0.13-2.038,0.883-2.352c0.7-0.291,1.684,1.283,2.235,0.525
			c0.191-0.262,0.096-0.831,0.073-1.125c-0.09-1.166-0.371-2.32-0.582-3.467c-0.074-0.401-0.668-2.478,0.243-2.307
			c0.906,0.17,5.065,5.831,5.859,3.497c0.35-1.029,0.001-2.368,0.576-3.314c0.552-0.908,1.792,0.089,2.479,0.29
			c2.374,0.695,0.868-4.065,1.807-4.921c1.13-1.03,6.469,8.897,6.899,9.598c0.181,0.296,0.839,1.715,1.283,1.778
			c0.385,0.054,0.194-0.675,0.157-0.941c-0.361-2.583-0.979-5.114-1.26-7.711c-0.194-1.797-0.586-3.978-0.18-5.773
			c0.103-0.456,0.214-0.625,0.549-0.224c0.532,0.638,0.759,1.748,1.047,2.502c0.322,0.843,0.598,1.768,1.08,2.539
			c0.245,0.391,0.429,0.633,0.741,0.199c0.317-0.44,0.442-3.191,1.366-2.199c0.406,0.436,0.639,1.165,0.855,1.699
			c0.421,1.041,0.772,2.108,1.121,3.174c0.488,1.489,0.96,2.985,1.47,4.467c0.068,0.199,0.541,1.749,0.756,1.579
			c0.096-0.076,0.009-0.644,0.005-0.746c-0.025-0.719-0.072-1.437-0.078-2.157c-0.009-0.96,0.047-1.914,0.212-2.861
			c0.454-2.613,1.509-5.122,2.287-7.65c0.046-0.148,0.311-1.364,0.622-1.303c0.283,0.055,0.344,1.319,0.366,1.493
			c0.332,2.659,0.408,5.345,0.699,8.008c0.108,0.988,0.216,1.997,0.47,2.961c0.088,0.337,0.176,0.972,0.514,0.615
			c0.124-0.131,0.143-0.534,0.176-0.697c0.143-0.694,0.25-1.396,0.383-2.092c0.207-1.083,0.458-2.161,0.796-3.21
			c0.619-1.92,1.579-3.76,2.806-5.362c0.257-0.335,1.505-1.991,1.486-0.855c-0.018,1.044-0.557,2.169-0.804,3.176
			c-0.284,1.153-0.496,2.32-0.624,3.501c-0.204,1.877-0.353,3.93,0.062,5.792c0.235,1.057,0.588,1.335,1.58,0.913
			c1.78-0.757,3.714-1.049,5.506-1.775"/>
	</g>
	<g id="POLYLINE_556_">
		
			<path fill="none" stroke="#FB8604" stroke-width="2.5" stroke-linecap="round" stroke-linejoin="round" stroke-miterlimit="10" d="
			M422.443,441.703c-0.984,5.239-1.793,10.478-2.057,15.808c-0.265,5.347-0.129,10.718,0.218,16.058
			c0.338,5.196,0.861,10.416,1.937,15.517c0.785,3.722,1.79,7.779,4.673,10.465c1.635,1.524,3.564,2.653,5.076,4.322
			c1.175,1.297,2.194,2.765,2.902,4.37c1.417,3.212,0.652,6.855,2.068,10.058c1.66,3.752,5.028,6.453,8.364,8.66
			c2.761,1.827,6.443,3.668,7.883,6.857c0.646,1.43,1.022,3.618,0.08,5.018c-0.676,1.006-2.101,1.209-3.203,1.385
			c-2.299,0.369-4.668,0.406-6.991,0.476c-1.519,0.046-3.038,0.092-4.557,0.138"/>
	</g>
	<g id="POLYLINE_555_">
		
			<path fill="none" stroke="#FB8604" stroke-width="2.5" stroke-linecap="round" stroke-linejoin="round" stroke-miterlimit="10" d="
			M229.641,346.528c1.651,0.685,3.312,1.158,5.101,0.842c3.031-0.535,5.746-2.402,8.246-4.086c1.939-1.306,4.3-3.197,6.812-2.838
			c2.831,0.404,5.21,3.003,7.364,4.625c6.486,4.886,14.07,7.876,21.83,10.074c8.283,2.346,16.798,3.973,25.331,5.088
			c8.473,1.107,17.003,1.703,25.549,1.783c9.427,0.088,18.832-0.425,28.248-0.822c8.033-0.339,16.139-0.835,24.132,0.312
			c3.691,0.53,7.588,1.231,11.029,2.716c1.979,0.854,3.629,2.116,4.483,4.142c0.52,1.234,0.782,2.567,1.016,3.879
			c0.394,2.211,0.786,4.418,1.225,6.62c0.81,4.064,1.721,8.164,1.497,12.334c-0.218,4.049-1.041,8.058-1.396,12.099
			c-0.427,4.878-0.775,9.763-1.148,14.645c-0.301,3.941-0.844,7.82-1.351,11.736c-0.148,1.139-0.232,2.294-0.053,3.434
			c0.249,1.589,0.918,3.096,1.443,4.605c2.326,6.694,1.571,14.027,1.144,20.974c-0.596,9.702-1.026,19.43-1.847,29.116
			c-0.169,1.994-0.357,3.999-0.727,5.967c-0.263,1.399-0.83,2.742-1.007,4.154c-0.258,2.059,0.51,4.252,1.351,6.092
			c1.145,2.502,2.793,4.427,5.047,5.987c2.139,1.48,4.156,2.784,5.085,5.32c0.689,1.881,0.778,3.991,0.16,5.901
			c-0.757,2.341-2.414,4.372-2.451,6.915c-0.069,4.713,3.909,8.009,7.911,9.662c3.69,1.524,7.713,1.992,11.657,2.351
			c4.087,0.372,8.24,0.86,12.349,0.737c3.682-0.11,9.797-1.277,10.048-6.036c0.258-4.886-5.514-7.931-8.786-10.32
			c-2.888-2.108-5.795-4.536-7.577-7.693c-1.541-2.731-1.713-5.921-2.93-8.771c-1.218-2.85-3.775-4.754-5.718-7.075
			c-2.246-2.683-3.545-5.976-4.434-9.327c-2.094-7.894-2.641-16.312-2.032-24.438c0.598-7.974,2.319-16.087,5.33-23.507
			c1.499-3.693,3.601-7.156,4.369-11.111c0.77-3.963,0.583-8.09,0.568-12.105c-0.015-4.064-0.038-8.134,0.329-12.186
			c0.372-4.11,1.117-8.185,2.004-12.212c0.987-4.482,2.086-8.941,3.018-13.435c0.864-4.16,1.438-8.372,2.249-12.541
			c0.617-3.176,1.357-6.563,3.13-9.325c1.55-2.415,4.01-3.839,6.467-5.192c1.696-0.934,3.38-1.868,4.835-3.161
			c1.43-1.27,2.644-2.766,3.762-4.312c2.448-3.386,4.568-6.994,7.034-10.37c4.859-6.651,10.356-12.923,16.486-18.431
			c6.521-5.86,13.831-10.743,20.858-15.959c6.474-4.806,12.487-10.041,17.955-15.974c6.068-6.585,12.083-13.119,18.798-19.059
			c3.406-3.013,6.856-5.987,10.357-8.89c2.018-1.673,4.296-3.689,6.914-4.324c1.699-0.412,3.188,0.238,4.548,1.227
			c3.093,2.25,5.76,5.046,9.23,6.763c1.889,0.935,4.391,0.842,5.97,2.312c1.057,0.985,1.771,2.314,2.635,3.456
			c1.15,1.52,2.519,2.815,4.007,4c3.447,2.746,7.275,5.025,10.972,7.411c3.121,2.014,6.046,4.486,9.408,6.099
			c2.206,1.059,4.599,1.368,6.504,2.995c2.348,2.005,3.918,4.905,6.439,6.692c1.471,1.043,3.286,1.171,5.038,1.18
			c3.709,0.02,7.532-0.498,11.111-1.467c1.76-0.476,3.921-1.121,4.997-2.74c0.843-1.269,0.824-2.93,0.523-4.369
			c-0.444-2.121-1.601-3.912-3.047-5.495c-1.367-1.498-2.89-2.844-4.243-4.356c-1.388-1.551-2.691-3.178-4.024-4.776"/>
	</g>
	<g id="POLYLINE_554_">
		
			<path fill="none" stroke="#FB8604" stroke-width="2.5" stroke-linecap="round" stroke-linejoin="round" stroke-miterlimit="10" d="
			M142.5,243.4c-1.901,4.979-3.355,9.853-2.92,15.249c0.448,5.559,2.11,11.034,4.061,16.233c1.986,5.294,4.449,10.386,7.279,15.279
			c3.004,5.195,6.152,10.303,8.961,15.609c2.654,5.014,4.996,10.213,7.111,15.475c2.154,5.36,4.154,10.792,5.744,16.349
			c1.437,5.025,2.919,10.499,2.162,15.763c-0.369,2.565-1.284,5.017-2.252,7.408c-1.278,3.158-2.596,6.3-3.894,9.45
			c-2.169,5.265-4.427,10.494-6.724,15.704c-2.269,5.146-4.62,10.32-7.456,15.183c-1.234,2.116-2.686,4.188-3.584,6.481
			c-0.732,1.87-0.878,3.83-0.756,5.822c0.355,5.791,1.97,11.507,2.944,17.213c0.968,5.673,1.755,11.377,2.584,17.071
			c0.874,6.006,1.68,12.027,2.748,18.003c0.999,5.591,2.678,11.062,3.48,16.685c0.812,5.694,0.695,11.46,0.638,17.194
			c-0.013,1.326,0.051,2.614,0.595,3.84c0.43,0.968,1.046,1.84,1.48,2.805c0.293,0.651,0.396,1.315,0.576,2.001
			c0.389,1.484,1.566,2.34,2.662,3.331c1.257,1.136,2.04,2.743,3.355,3.787c2.032,1.614,5.216,1.262,6.944,3.389
			c1.436,1.768,0.649,4.562-0.126,6.419c-0.985,2.36-1.991,4.14-0.844,6.62c0.384,0.831,0.906,1.621,1.549,2.275
			c0.947,0.962,2.234,1.457,3.25,2.338c1.325,1.149,2.512,2.292,4.135,3.001c2.263,0.99,4.81,1.444,7.265,1.568
			c2.656,0.134,5.368-0.015,8.007-0.325c2.167-0.254,4.411-0.631,6.404-1.557c2.008-0.933,3.643-2.682,3.462-5.026
			c-0.092-1.192-0.616-2.318-1.2-3.341c-1.327-2.322-3.127-4.331-4.66-6.512c-1.487-2.115-2.611-4.401-3.243-6.912
			c-0.529-2.101-0.808-4.334-1.808-6.285c-1.872-3.653-5.837-5.066-8.924-7.435c-3.127-2.399-3.37-5.929-4.301-9.523
			c-0.669-2.58-1.813-4.995-2.796-7.463c-0.904-2.27-1.487-4.568-1.773-6.995c-0.624-5.3-1.056-10.586-1.943-15.856
			c-0.653-3.882-1.306-7.764-1.959-11.646c-0.384-2.28-0.828-4.565-0.991-6.874c-0.356-5.063,1.596-9.589,3.348-14.233
			c0.89-2.36,1.707-4.728,2.312-7.179c0.705-2.86,1.305-5.762,2.276-8.549c1.669-4.789,4.635-8.979,7.649-13.006
			c3.688-4.929,7.457-9.805,10.649-15.079c3.131-5.175,5.535-10.695,8.011-16.2c2.13-4.736,4.395-9.421,7.502-13.607
			c1.548-2.085,3.284-4.005,5.199-5.757c1.728-1.58,3.562-3.114,4.936-5.029c1.434-2,2.354-4.317,3.487-6.487
			c1.189-2.278,2.685-4.323,4.362-6.264c1.808-2.093,3.707-4.138,5.285-6.416c1.498-2.163,2.707-4.493,3.923-6.821"/>
	</g>
	<g id="POLYLINE_553_">
		
			<path fill="none" stroke="#FB8604" stroke-width="2.5" stroke-linecap="round" stroke-linejoin="round" stroke-miterlimit="10" d="
			M1052.504,440.069c7.205,0.064,14.296,1.239,21.295,2.889c6.421,1.514,13.426,2.963,19.1,6.488
			c1.688,1.049,3.287,2.369,4.273,4.124c0.901,1.604,1.22,3.446,1.261,5.266c0.069,3.055-0.522,6.092-1.006,9.094
			c-0.619,3.844-1.245,7.681-1.735,11.544c-0.898,7.074-1.583,14.195-1.989,21.315c-0.2,3.505-0.428,7.044-0.265,10.555
			c0.07,1.507,0.229,3.146,1.194,4.377c1.045,1.333,2.75,2.053,4.325,2.529c3.054,0.924,6.309,1.076,9.479,1.054
			c7.24-0.049,14.429-1.117,21.634-1.706c7.074-0.578,14.253-0.818,21.349-0.624c3.326,0.091,6.695,0.264,9.961,0.942
			c3.236,0.672,6.133,2.049,8.898,3.829c2.703,1.74,5.444,3.548,7.812,5.734c1.151,1.062,2.407,2.339,2.862,3.892
			c0.906,3.092-2.201,5.776-4.515,7.187c-5.328,3.248-11.562,2.778-17.469,1.831c-3.532-0.566-7.054-1.301-10.623-1.604
			c-3.002-0.255-5.964,0.021-8.92,0.564c-3.578,0.657-7.1,1.312-10.739,1.507c-3.14,0.168-6.279,0.137-9.421,0.111
			c-7.09-0.057-14.175-0.143-21.264-0.008c-8.028,0.153-16.063,0.434-24.093,0.338c-3.38-0.04-6.785-0.151-10.139-0.595
			c-2.047-0.271-4.548-0.57-6.22-1.93c-1.149-0.935-1.493-2.328-1.708-3.731c-0.53-3.459-0.782-6.98-0.931-10.474
			c-0.3-7.071,0.398-14.121,0.328-21.19c-0.033-3.369-0.23-6.732-0.425-10.095"/>
	</g>
	<g id="POLYLINE_552_">
		
			<path fill="none" stroke="#FB8604" stroke-width="2.5" stroke-linecap="round" stroke-linejoin="round" stroke-miterlimit="10" d="
			M1348.916,488.906c0.345-4.017,1.328-7.748,3.133-11.357c1.803-3.606,4.195-7.079,7.34-9.643c2.837-2.313,6.227-3.809,9.706-4.872
			c2.999-0.917,6.46-1.975,9.627-1.343c2.045,0.408,3.571,1.789,4.752,3.443c0.266,0.372,0.513,0.757,0.753,1.147"/>
	</g>
	<g id="POLYLINE_551_">
		
			<path fill="none" stroke="#FB8604" stroke-width="2.5" stroke-linecap="round" stroke-linejoin="round" stroke-miterlimit="10" d="
			M1285.603,523.791c-5.499-0.362-10.969-1.077-16.425-1.838c-5.432-0.757-10.773-1.663-15.913-3.648
			c-4.98-1.923-9.755-4.504-14.935-5.878c-4.046-1.074-8.257-1.004-12.172,0.546c-4.284,1.696-8.363,4.933-10.588,9.015
			c-2.164,3.972-2.581,9.236-1.999,13.655c0.258,1.959,0.823,4.142,2.857,4.897c1.207,0.448,2.576,0.425,3.839,0.375
			c2.937-0.116,5.873-0.569,8.79-0.904c5.379-0.618,10.759-0.699,16.167-0.584c6.074,0.129,12.145,0.53,18.212,0.836
			c5.242,0.264,10.487,0.498,15.735,0.606c5.632,0.116,11.266,0.069,16.89-0.285c2.773-0.174,5.539-0.433,8.301-0.735
			c2.433-0.267,4.907-0.555,7.248-1.302c2.513-0.802,4.734-2.224,5.994-4.599c1.658-3.126,1.775-7.003,1.164-10.416
			c-0.724-4.044-2.66-7.612-5.672-10.403c-3.406-3.156-7.702-5.219-12.031-6.783c-2.639-0.953-5.348-1.706-7.961-2.732
			c-2.317-0.91-4.517-2.058-6.648-3.341c-4.789-2.883-9.312-6.195-14.161-8.98c-2.469-1.418-5.047-2.597-7.632-3.784
			c-1.904-0.875-3.865-1.741-5.522-3.046c-1.686-1.327-2.898-3.073-4.092-4.829"/>
	</g>
	<g id="POLYLINE_550_">
		
			<path fill="none" stroke="#FB8604" stroke-width="2.5" stroke-linecap="round" stroke-linejoin="round" stroke-miterlimit="10" d="
			M1209.059,479.629c0.867,5.091,3.054,10.499,6.005,14.736c1.62,2.326,3.806,4.176,5.986,5.955c2.196,1.792,4.46,3.496,6.74,5.18
			c2.961,2.186,5.923,4.37,8.891,6.546"/>
	</g>
	<g id="POLYLINE_549_">
		
			<path fill="none" stroke="#FB8604" stroke-width="2.5" stroke-linecap="round" stroke-linejoin="round" stroke-miterlimit="10" d="
			M1177.945,537.514c4.689,0.392,9.37,0.679,14.075,0.756c4.646,0.075,9.297,0.016,13.94-0.172c2.677-0.108,5.348-0.269,8.021-0.456
			"/>
	</g>
	<g id="POLYLINE_548_">
		
			<path fill="none" stroke="#FB8604" stroke-width="2.5" stroke-linecap="round" stroke-linejoin="round" stroke-miterlimit="10" d="
			M1285.275,499.553c2.384-2.329,4.83-4.617,6.997-7.155c2.035-2.382,3.695-5.021,5.194-7.765
			c3.199-5.854,6.131-11.873,10.746-16.777c2.665-2.832,5.699-5.246,8.787-7.593"/>
	</g>
	<g id="POLYLINE_547_">
		
			<path fill="none" stroke="#FB8604" stroke-width="2.5" stroke-linecap="round" stroke-linejoin="round" stroke-miterlimit="10" d="
			M947.744,487.448c-0.55,8.442-0.797,16.891-1.587,25.316c-0.39,4.156-0.869,8.325-0.811,12.506
			c0.042,3.029,0.394,6.117,1.724,8.876c1.446,3,4.151,5.624,7.687,5.344c1.864-0.148,3.585-1.007,5.074-2.097
			c2.956-2.164,5.284-5.183,7.383-8.148c4.501-6.358,8.23-13.421,10.662-20.83c2.612-7.959,3.771-16.37,5.009-24.629
			c0.608-4.056,1.139-8.134,1.454-12.224c0.283-3.671,0.609-7.644-0.236-11.267c-0.108-0.465-0.277-1.431-0.765-1.677
			c-0.684-0.345-1.211,0.8-1.457,1.266c-1.566,2.971-2.411,6.385-3.349,9.594c-2.513,8.591-4.804,17.313-8.114,25.644
			c-3.04,7.651-7.336,14.451-12.798,20.603c-1.313,1.48-2.68,2.909-4.043,4.343"/>
	</g>
	<g id="POLYLINE_546_">
		
			<path fill="none" stroke="#FB8604" stroke-width="2.5" stroke-linecap="round" stroke-linejoin="round" stroke-miterlimit="10" d="
			M1056.264,536.911c-5.818,0.91-11.674,1.511-17.55,1.89c-6.128,0.396-12.261,0.595-18.401,0.659
			c-6.083,0.063-12.179,0.043-18.256-0.253c-5.802-0.283-11.489-1.262-17.086-2.807c-5.488-1.515-11.017-3.5-15.812-6.623
			c-0.53-0.345-1.049-0.706-1.557-1.083"/>
	</g>
	<g id="POLYLINE_545_">
		
			<path fill="none" stroke="#FB8604" stroke-width="2.5" stroke-linecap="round" stroke-linejoin="round" stroke-miterlimit="10" d="
			M1328.935,388.072c-1-5.039-1.476-10.274-0.564-15.365c0.954-5.326,3.053-10.384,4.169-15.682
			c1.227-5.823,2.213-11.712,3.916-17.423c1.597-5.354,3.785-10.574,6.525-15.444c1.822-3.238,4.023-7.275,7.666-8.757
			c2.132-0.867,5.506-1.017,7.095,0.982c0.58,0.729,0.768,1.672,0.82,2.581c0.144,2.505-0.492,5.092-0.892,7.547
			c-0.883,5.429-0.405,10.709-0.137,16.167c0.11,2.245,0.175,4.586-0.47,6.764c-0.613,2.068-1.867,3.84-2.822,5.753
			c-2.283,4.571-2.022,9.795-2.824,14.718c-0.213,1.307-0.532,2.593-0.808,3.887"/>
	</g>
	<g id="POLYLINE_544_">
		
			<path fill="none" stroke="#FB8604" stroke-width="2.5" stroke-linecap="round" stroke-linejoin="round" stroke-miterlimit="10" d="
			M1368.766,368.106c1.953-4.17,4.005-8.28,6.3-12.274c2.269-3.95,4.744-7.78,7.396-11.483c2.75-3.841,5.663-7.56,8.713-11.168
			c1.368-1.618,2.757-3.254,4.299-4.71c0.846-0.799,1.779-1.595,2.868-2.041c1.674-0.686,3.316-0.088,4.497,1.207
			c1.843,2.021,2.401,4.985,2.672,7.609c0.426,4.128,0.117,8.419-0.833,12.457c-0.919,3.907-2.719,7.365-5.249,10.468
			c-2.787,3.418-6.006,6.542-9.344,9.417c-3.126,2.692-6.456,5.177-10.045,7.221c-0.906,0.516-1.831,0.999-2.772,1.448"/>
	</g>
	<g id="POLYLINE_543_">
		
			<path fill="none" stroke="#FB8604" stroke-width="2.5" stroke-linecap="round" stroke-linejoin="round" stroke-miterlimit="10" d="
			M1200.88,392.427c4.877-1.581,9.698-3.179,14.791-3.905c4.738-0.676,9.214-1.425,13.432-3.815
			c4.547-2.577,8.587-5.966,13.193-8.446c4.776-2.572,10.011-3.862,15.202-5.298c2.41-0.667,4.794-1.433,7.081-2.451
			c2.332-1.038,4.518-2.354,6.723-3.63c2.215-1.282,4.42-2.59,6.745-3.666c2.318-1.072,4.745-1.836,7.185-2.573
			c4.855-1.467,9.352-3.162,13.536-6.095c2.816-1.974,5.613-4.695,9.28-4.36c4.391,0.402,9.053,0.967,13.277-0.674
			c2.125-0.825,3.988-2.157,5.886-3.393c1.752-1.141,3.598-2.078,5.516-2.907c1.231-0.532,2.473-1.038,3.711-1.552"/>
	</g>
	<g id="POLYLINE_542_">
		
			<path fill="none" stroke="#FB8604" stroke-width="2.5" stroke-linecap="round" stroke-linejoin="round" stroke-miterlimit="10" d="
			M1357.545,342.937c2.417,0.15,5.104,1.02,7.066,2.453c0.816,0.596,1.428,1.413,2.181,2.082c1.243,1.105,2.654,2.038,4.065,2.912
			c1.813,1.123,3.697,2.155,5.676,2.957"/>
	</g>
	<g id="POLYLINE_541_">
		
			<path fill="none" stroke="#FB8604" stroke-width="2.5" stroke-linecap="round" stroke-linejoin="round" stroke-miterlimit="10" d="
			M947.744,487.448c-0.411-6.609,0.528-13.113,2.54-19.413c2.124-6.65,5.151-13.015,8.788-18.968
			c3.614-5.917,7.838-11.445,12.721-16.373c5.042-5.088,10.779-9.476,16.923-13.15c6.176-3.693,12.746-6.67,19.492-9.157
			c6.799-2.506,13.761-4.553,20.746-6.468c6.24-1.711,12.516-3.29,18.744-5.044c8.881-2.501,17.762-5.001,26.643-7.502
			c5.9-1.661,11.883-3.267,18.021-3.681c7.107-0.48,14.271,0.323,21.333,1.063c7.227,0.757,14.437,1.691,21.671,2.377
			c6.74,0.639,13.511,1.08,20.272,0.492c3.813-0.332,7.623-0.759,11.451-0.866c3.475-0.096,6.952,0.055,10.421,0.257
			c7.345,0.427,14.677,1.093,22.03,1.368c7.002,0.262,14.053,0.138,20.993-0.9c6.622-0.99,12.91-3.02,18.997-5.788
			c6.922-3.148,13.771-6.322,20.966-8.804c6.921-2.387,14.002-4.312,21.089-6.135c7.184-1.848,14.433-3.443,21.628-5.247
			c6.757-1.694,13.281-4.157,20.009-5.946c2.994-0.796,6.045-1.429,9.135-1.695"/>
	</g>
	<g id="POLYLINE_540_">
		
			<path fill="none" stroke="#FB8604" stroke-width="2.5" stroke-linecap="round" stroke-linejoin="round" stroke-miterlimit="10" d="
			M1352.572,360.469c5.235,1.634,10.34,3.733,14.93,6.768c4.501,2.976,8.434,6.836,11.429,11.329
			c2.818,4.228,4.219,8.766,5.227,13.706c0.472,2.317,0.9,4.679,1.86,6.854c0.941,2.131,2.369,4.008,3.286,6.15
			c1.675,3.915,0.621,8.335-0.868,12.142c-0.851,2.176-2.216,4.121-3.01,6.31c-0.515,1.421-0.59,2.934-0.574,4.433
			c0.055,5.253,0.501,10.437,0.22,15.699c-0.328,6.146-0.763,12.296-0.872,18.451c-0.047,2.679,0.013,5.367,0.326,8.03
			c0.328,2.794,0.964,5.526,1.576,8.267c1.2,5.372,1.481,10.8,0.511,16.24c-0.869,4.876-2.82,9.795-6.308,13.403
			c-2.036,2.107-4.585,3.586-7.543,3.739c-4.534,0.233-9.314-1.832-13.138-4.099c-3.687-2.185-5.895-5.276-7.332-9.277
			c-1.392-3.875-1.976-8.566-4.775-11.763c-1.414-1.615-3.325-2.637-5.064-3.85c-1.661-1.158-3.017-2.507-4.184-4.155
			c-1.483-2.095-2.687-4.393-4.349-6.359c-1.292-1.529-2.864-2.784-4.554-3.846c-4.005-2.516-8.805-3.966-11.883-7.75
			c-2.982-3.666-4.15-8.7-4.833-13.269c-0.787-5.262-0.926-10.656-0.302-15.942c0.299-2.531,0.796-5.028,1.448-7.491"/>
	</g>
</g>
<g id="AG-OUTLINE">
	<g id="POLYLINE_26_">
		
			<path fill="none" stroke="#FB8604" stroke-width="3.25" stroke-linecap="round" stroke-linejoin="round" stroke-miterlimit="10" d="
			M1317,460.262c2.134,2.96,5.323,4.616,8.491,6.247c3.079,1.585,6.13,3.271,8.403,5.95c2.328,2.744,3.733,6.206,6.325,8.734
			c2.411,2.35,5.784,3.554,7.818,6.307c2.195,2.972,2.831,6.932,3.99,10.359c1.047,3.097,2.435,6.001,4.954,8.164
			c2.67,2.293,6.132,3.864,9.456,4.949c2.685,0.877,5.673,1.441,8.456,0.688c2.538-0.687,4.662-2.43,6.316-4.422
			c2.56-3.084,4.183-6.88,5.072-10.764c0.968-4.229,1.198-8.679,0.699-12.987c-0.499-4.303-1.864-8.449-2.406-12.749
			c-0.54-4.286-0.421-8.624-0.234-12.929c0.198-4.55,0.524-9.093,0.724-13.642c0.204-4.636,0.102-9.221-0.134-13.853
			c-0.139-2.727-0.194-5.339,1.038-7.828c1.828-3.693,3.665-7.241,4.115-11.416c0.322-2.996-0.463-5.48-1.949-8.059
			c-0.962-1.668-1.97-3.306-2.605-5.133c-0.654-1.881-1.013-3.851-1.409-5.797c-0.8-3.924-1.804-7.68-3.77-11.198
			c-0.906-1.622-1.953-3.151-3.082-4.625c5.399-2.57,10.239-6.271,14.639-10.286c4.401-4.016,9.072-8.526,11.433-14.105
			c2.239-5.288,2.82-11.633,2.093-17.299c-0.371-2.892-1.36-7.311-4.644-8.303c-1.286-0.388-2.54,0.085-3.612,0.806
			c-2.189,1.473-3.916,3.676-5.616,5.657c-4.26,4.963-8.252,10.185-11.87,15.634c-0.914,1.376-1.806,2.767-2.667,4.176
			c-0.108,0.177-0.21,0.471-0.368,0.601c-0.292,0.24,0.061,0.149-0.37,0.099c-0.347-0.04-0.794-0.343-1.11-0.491
			c-0.741-0.347-1.469-0.722-2.187-1.116c-2.389-1.313-4.881-2.794-6.811-4.745c-1.489-1.505-2.891-2.43-4.938-3.143
			c-1.09-0.379-2.184-0.512-3.29-0.773c-0.255-0.06-0.296,0.026-0.41-0.159c-0.165-0.267-0.052-1.003-0.071-1.329
			c-0.054-0.922-0.118-1.843-0.177-2.764c-0.205-3.201-0.353-6.4,0.01-9.596c0.341-3.009,1.127-5.983,1.263-9.013
			c0.051-1.137,0.014-2.413-0.601-3.414c-0.711-1.158-2.083-1.675-3.376-1.828c-3.674-0.433-6.536,1.772-8.616,4.577
			c-3.639,4.907-6.235,10.715-8.292,16.436c-0.252,0.702-0.491,1.408-0.721,2.118c-0.185,0.572-0.277,1.408-0.728,1.751
			c-0.724,0.55-1.934,0.798-2.779,1.155c-0.634,0.267-1.265,0.541-1.89,0.829c-2.602,1.197-4.868,2.827-7.308,4.305
			c-4.672,2.83-9.901,2.831-15.198,2.258c-1.735-0.188-3.218-0.232-4.801,0.581c-2.624,1.347-4.867,3.358-7.36,4.921
			c-2.521,1.581-5.223,2.815-8.049,3.741c-3.088,1.012-6.249,1.788-9.265,3.013c-5.795,2.355-10.763,6.327-16.585,8.624
			c-6.02,2.375-12.506,3.268-18.422,5.958c-5.867,2.668-10.685,7.066-16.361,10.062c-5.214,2.752-10.935,2.782-16.568,4.034
			c-3.271,0.727-6.448,1.799-9.63,2.831c-0.758,0.246-1.201,0.364-1.992,0.336c-0.868-0.031-1.736-0.067-2.604-0.107
			c-1.683-0.077-3.365-0.175-5.047-0.281c-6.709-0.422-13.412-1.035-20.133-1.235c-6.473-0.192-12.816,0.69-19.262,1.037
			c-6.482,0.349-12.984-0.214-19.431-0.863c-6.688-0.674-13.359-1.514-20.045-2.214c-6.494-0.68-13.053-1.385-19.593-1.124
			c-6.038,0.24-11.929,1.644-17.733,3.248c-7.799,2.155-15.577,4.386-23.365,6.579c-5.95,1.675-11.913,3.286-17.885,4.885
			c-6.29,1.684-12.573,3.385-18.781,5.358c-6.242,1.983-12.409,4.244-18.338,7.036c-6.028,2.839-11.82,6.218-17.135,10.245
			c-5.245,3.974-10.039,8.535-14.2,13.637c-3.973,4.872-7.444,10.151-10.372,15.713c-2.993,5.687-5.482,11.703-7.005,17.958
			c-0.701,2.879-1.174,5.813-1.366,8.771c-0.198,3.053,0.014,6.094-0.16,9.146c-0.372,6.547-0.521,13.116-1.134,19.647
			c-0.597,6.363-1.73,13.079-0.793,19.463c0.515,3.513,2.055,7.426,5.265,9.314c1.973,1.16,4.296,1.118,6.376,0.256
			c4.47-1.85,7.637-6.362,10.322-10.168c5.829,4.323,13.074,6.7,20.052,8.403c7.31,1.784,14.626,2.197,22.12,2.332
			c7.794,0.141,15.597,0.043,23.384-0.313c7.401-0.338,14.822-0.91,22.145-2.056c0.494-0.077,0.761-0.233,1.037,0.051
			c0.111,0.115,0.166,0.378,0.248,0.524c0.193,0.343,0.434,0.655,0.719,0.926c0.514,0.489,1.151,0.827,1.806,1.087
			c3.026,1.202,6.556,1.331,9.769,1.494c7.883,0.4,15.796,0.074,23.681-0.077c7.642-0.146,15.266-0.188,22.909-0.126
			c3.762,0.03,7.529,0.123,11.29,0.001c3.839-0.124,7.557-0.633,11.327-1.338c3.307-0.619,6.582-1.099,9.956-0.84
			c3.713,0.285,7.374,1.069,11.047,1.648c5.728,0.903,11.727,1.367,16.955-1.618c0.463-0.264,0.912-0.551,1.345-0.862
			c0.156-0.112,0.372-0.364,0.553-0.418c0.416-0.125,1.191,0.099,1.611,0.134c1.926,0.161,3.854,0.305,5.784,0.407
			c3.653,0.192,7.316,0.263,10.974,0.241c3.867-0.023,7.733-0.095,11.596-0.278c1.015-0.048,2.031-0.102,3.046-0.165
			c0.409-0.026,0.819-0.057,1.228-0.086c0.365-0.026,1.439-0.3,1.734-0.121c0.319,0.194,0.576,1.309,0.885,1.714
			c0.636,0.832,1.571,1.25,2.582,1.43c2.895,0.518,6.042-0.132,8.927-0.463c3.818-0.438,7.612-0.835,11.457-0.927
			c3.911-0.094,7.824,0.013,11.731,0.166c7.914,0.31,15.821,0.814,23.735,1.133c7.479,0.302,14.97,0.338,22.445-0.092
			c3.668-0.211,7.347-0.539,10.988-1.036c2.729-0.372,5.605-0.882,7.961-2.397c3.3-2.123,4.418-6.082,4.462-9.824
			c0.067-5.719-2.274-11.039-6.605-14.766c-5.321-4.579-12.01-6.25-18.442-8.615c-3.1-1.14-5.953-2.699-8.767-4.416
			c2.384-2.329,4.83-4.617,6.997-7.155c2.035-2.382,3.695-5.021,5.194-7.765c3.199-5.854,6.131-11.873,10.746-16.777
			C1310.877,465.024,1313.911,462.61,1317,460.262z"/>
	</g>
	<g id="POLYLINE_25_">
		
			<path fill="none" stroke="#FB8604" stroke-width="3.25" stroke-linecap="round" stroke-linejoin="round" stroke-miterlimit="10" d="
			M631.942,292.342c1.683-0.114,3.378-0.361,4.796-1.336c2.131-1.464,3.509-3.959,4.783-6.135c1.639-2.798,3.285-5.614,4.175-8.755
			c0.981-3.46,1.122-7.124,0.673-10.681c-0.941-7.463-4.163-14.525-9.098-20.175c-2.547-2.916-5.288-5.646-7.638-8.731
			c-2.361-3.099-4.479-6.377-6.472-9.723c-3.998-6.713-7.682-13.675-10.877-20.807c-1.618-3.612-2.938-7.355-4.594-10.947
			c-1.514-3.282-3.667-6.006-6.153-8.605c-1.407-1.47-2.861-2.903-4.188-4.448c-1.262-1.469-2.429-3.021-3.75-4.439
			c-2.278-2.445-5.018-4.452-7.86-6.191c-1.528-0.935-3.107-1.792-4.736-2.537c-0.189-0.086-1.136-0.351-1.214-0.532
			c-0.064-0.148,0.255-0.838,0.297-0.976c0.404-1.325,0.807-2.651,1.211-3.976c1.059-3.476,2.153-7.003,3.874-10.219
			c1.691-3.16,4.073-5.867,6.013-8.867c1.974-3.052,3.421-6.391,4.636-9.808c1.28-3.602,2.32-7.299,3.14-11.032
			c0.406-1.848,0.774-3.71,1.006-5.589c0.124-1.004,0.293-2.135,0.082-3.146c-0.39-1.864-2.215-0.114-2.946,0.586
			c-2.694,2.578-4.776,5.766-6.933,8.783c-2.282,3.192-4.545,6.4-7.122,9.364c-2.521,2.901-5.426,5.392-8.317,7.91
			c-2.849,2.481-5.599,5.031-8.093,7.876c-0.6,0.684-0.953,1.181-1.821,1.475c-0.921,0.312-1.866,0.549-2.801,0.817
			c-0.529,0.152-1.057,0.308-1.568,0.516c-0.298,0.121-0.733,0.429-1.086,0.409c-1.458-0.081-1.055-4.461-1.018-5.246
			c0.082-1.71,0.322-3.405,0.721-5.07c0.225-0.938,0.516-1.861,0.734-2.801c0.035-0.15,0.246-0.751,0.11-0.902
			c-0.623-0.694-3.414,4.375-3.624,4.843c-0.601,1.338-1.001,2.751-1.307,4.183c-0.197,0.919-0.339,1.848-0.522,2.77
			c-0.025,0.123-0.092,0.848-0.26,0.92c-0.61,0.262-1.27-7.817-1.316-8.387c-0.113-1.41-0.08-2.956-0.462-4.325
			c-0.307-1.101-0.663,0.278-0.808,0.747c-1.014,3.264-2.458,6.53-2.517,9.995c-0.017,0.979,0.068,1.953,0.085,2.931
			c0.004,0.229,0.093,0.666-0.153,0.537c-0.312-0.164-0.516-1.27-0.617-1.563c-0.325-0.947-0.629-1.901-0.941-2.853
			c-0.217-0.663-1.869-7.115-3-6.741c-0.705,0.233-0.433,2.023-0.907,2.523c-0.497,0.523-0.855-0.532-1.04-0.94
			c-0.617-1.361-0.894-3.081-1.757-4.309c-0.52-0.74-0.606,0.195-0.645,0.694c-0.257,3.282,0.361,6.713,0.953,9.928
			c0.18,0.979,0.388,1.956,0.534,2.941c0.023,0.154,0.192,0.796,0.062,0.953c-0.338,0.409-1.54-1.786-1.681-2.02
			c-1.058-1.76-2.07-3.549-3.139-5.302c-0.761-1.248-1.534-2.672-2.612-3.686c-0.492-0.463-0.919-0.61-1.12,0.139
			c-0.284,1.059-0.104,2.218-0.281,3.299c-0.331,2.019-1.489,0.931-2.849,0.586c-1.595-0.404-1.3,2.36-1.481,3.253
			c-0.419,2.076-2.26,0.195-3.12-0.611c-0.664-0.622-1.295-1.281-1.978-1.883c-0.213-0.187-0.543-0.559-0.835-0.623
			c-0.62-0.136-0.505,0.573-0.461,1.015c0.152,1.544,0.622,3.044,0.772,4.589c0.037,0.387,0.202,1.339-0.303,1.496
			c-0.591,0.184-1.193-0.79-1.798-0.75c-0.741,0.05-0.586,1.333-0.683,1.827c-0.349,1.788-1.75-1.817-2.518-0.682
			c-0.367,0.543-0.19,1.693-0.142,2.28c0.129,1.594,0.571,3.129,0.811,4.704c0.057,0.377,0.273,1.262-0.168,1.496
			c-0.407,0.215-1.125-0.332-1.432-0.533c-0.889-0.584-3.494-3.338-3.818-0.886c-0.138,1.041,0.093,2.123,0.312,3.135
			c0.083,0.385,0.719,2.091-0.101,1.935c-0.268-0.051-0.616-0.411-0.811-0.567c-0.724-0.583-1.408-1.214-2.126-1.802
			c-0.78-0.64-1.595-1.251-2.502-1.7c-0.568-0.281-1.287-0.631-1.933-0.608c-0.806,0.028-0.472,0.584-0.174,1.071
			c0.721,1.182,1.409,2.275,1.833,3.606c0.177,0.557,0.529,1.492,0.392,2.102c-0.205,0.91-1.135-0.199-1.49-0.519
			c-0.849-0.764-1.713-1.569-2.767-2.044c-1.146-0.517-2.591-0.566-3.746-0.033c-1.642,0.757-0.033,1.566,0.042,2.76
			c0.082,1.312-0.825,3.044-1.982,3.682c-1.695,0.935-3.993-0.182-5.702-0.399c-0.503-0.064-1.228-0.165-1.628,0.235
			c-0.513,0.514-0.283,1.51-0.45,2.148c-0.145,0.557-0.457,0.865-0.987,1.072c-0.563,0.22-1.989,0.17-2.292,0.837
			c-0.23,0.506,0.393,1.265,0.644,1.627c0.076,0.11,0.937,1.034,0.843,1.249c-0.104,0.238-0.749-0.14-0.914-0.211
			c-1.556-0.665-3.132-1.33-4.859-1.109c-0.44,0.056-1.236,0.18-1.492,0.615c-0.339,0.576,0.362,1.147,0.747,1.492
			c0.427,0.385,4.953,3.36,3.723,4.27c-0.785,0.581-2.327,0.358-3.249,0.547c-0.826,0.169-1.548,0.533-2.322,0.859
			c-1.73,0.729-3.033,0.197-4.68-0.551c-0.758-0.344-1.774-0.966-2.66-0.917c-0.802,0.044-0.977,0.785-1.252,1.42
			c-0.761,1.757-2.219,0.715-3.649,0.392c-1.712-0.386-1.062,1.51-0.489,2.388c0.535,0.821,1.387,1.392,1.925,2.191
			c0.509,0.756-0.517,0.44-1.001,0.327c-2.828-0.657-5.752-2.009-8.712-1.874c-1.795,0.082-2.373,1.441-3.697,2.431
			c-1.558,1.164-4.001,1.303-5.244,2.864c-0.993,1.246,0.296,2.988,0.647,4.216c0.49,1.718-0.913,2.356-2.399,2.677
			c-3.49,0.756-7.16,0.398-10.7,0.646c-1.088,0.076-3.858,0.141-2.625,1.796c0.305,0.41,1.256,1.196,0.774,1.767
			c-0.456,0.539-1.935,0.568-2.5,0.669c-0.381,0.068-1.576,0.148-1.758,0.638c-0.169,0.453,0.523,0.964,0.809,1.206
			c1.136,0.963,2.45,1.696,3.551,2.704c0.958,0.878,1.671,1.948,2.487,2.95c-5.679,1.358-11.314,1.974-17.148,1.514
			c-5.95-0.469-11.737-1.506-17.732-1.232c-6.224,0.284-12.439,0.755-18.667,0.957c-6.157,0.2-12.317,0.298-18.477,0.31
			c-6.124,0.012-12.253-0.037-18.373-0.291c-5.606-0.233-11.185-0.689-16.755-1.373c-3.997-0.491-7.99-1.01-11.985-1.514
			c-8.149-1.03-16.298-2.059-24.447-3.089c-9.088-1.148-18.175-2.296-27.263-3.445c-6.597-0.834-13.194-1.667-19.79-2.501
			c-3.693-0.467-7.393-0.902-11.053-1.592c-5.908-1.113-11.497-3.258-17.273-4.861c-5.688-1.579-11.386-2.218-17.276-1.629
			c-5.382,0.538-10.711,1.774-15.932,3.154c-6.511,1.721-12.998,3.564-19.541,5.16c-2.801,0.683-5.612,1.233-8.457,1.699
			c-2.453,0.402-4.904,0.766-7.197,1.774c-4.217,1.854-7.088,4.935-9.123,9.007c-2.771,5.544-5.86,10.904-8.798,16.36
			c-2.799,5.199-5.267,10.572-7.42,16.07c-2.223,5.675-4.123,11.488-5.645,17.39c-1.488,5.769-2.544,11.633-3.297,17.541
			c-0.798,6.262-1.333,12.557-2.168,18.814c-0.776,5.807-1.976,11.525-3.256,17.238c-1.411,6.3-2.862,12.578-3.862,18.96
			c-0.459,2.931-0.902,5.881-1.128,8.841c-0.067,0.884-0.22,1.929-0.021,2.81c0.132,0.583,0.361,0.622,0.746,0.167
			c0.663-0.782,1.082-1.843,1.558-2.736c0.219-0.411,0.648-1.668,1.149-1.88c0.516-0.219,0.432,0.615,0.435,0.99
			c0.01,1.353-0.164,2.721-0.272,4.067c-0.235,2.926-0.476,5.846-0.35,8.784c0.128,2.995,0.538,5.962,0.933,8.93
			c0.318,2.394,0.495,4.929,1.258,7.234c0.244,0.738,0.705,1.851,1.611,1.206c1.14-0.812,1.726-2.718,2.16-3.95
			c0.895-2.541,1.413-5.209,1.864-7.859c0.283-1.659,0.539-3.324,0.853-4.977c0.048-0.254,0.225-1.697,0.566-1.404
			c0.424,0.364,0.312,2.069,0.346,2.541c0.104,1.431,0.159,2.868,0.191,4.302c0.063,2.808,0.131,5.648-0.24,8.439
			c-0.364,2.743-1.337,5.25-2.333,7.812c-0.139,0.357-1.368,2.94-0.192,2.683c0.503-0.11,1.032-0.618,1.417-0.929
			c0.919-0.744,1.771-1.579,2.569-2.45c1.099-1.199,2.03-2.466,2.597-3.996c0.989-2.666,1.558-5.498,2.402-8.214
			c0.218-0.7,0.421-2.154,0.989-2.684c0.415-0.387,0.326,0.348,0.323,0.695c-0.026,2.764-0.586,5.595-1.165,8.288
			c-0.048,0.225-0.59,1.868-0.241,2.093c0.349,0.226,1.119-0.765,1.296-0.959c1.852-2.038,3.381-4.461,4.67-6.885
			c1.261-2.372,2.204-4.878,2.385-7.578c0.182-2.708-0.317-5.41-0.636-8.088c-0.763-6.414-0.838-12.926-1.113-19.373
			c-0.23-5.395-0.67-10.759-1.251-16.127c-0.709-6.549-1.509-13.092-1.903-19.67c-0.355-5.931-0.465-11.914,0.137-17.833
			c0.566-5.57,2.097-10.716,4.443-15.79c0,1.052,0.319,2.238,0.482,3.279c0.16,1.023,0.336,2.042,0.517,3.061
			c0.367,2.075,0.784,4.142,1.246,6.198c0.893,3.97,1.992,7.888,3.284,11.745c1.427,4.26,2.936,8.494,3.961,12.874
			c0.985,4.208,1.595,8.489,2.028,12.787c0.867,8.584,1.104,17.261,0.773,25.881c-0.311,8.115-1.004,16.562-4.121,24.145
			c-1.444,3.513-3.438,6.737-5.55,9.88c-3.042,4.526-6.084,9.052-9.126,13.578c-2.012,2.994-4.082,6.004-5.769,9.196
			c-1.515,2.866-2.247,5.807-2.306,9.045c-0.076,4.146,0.468,8.281,0.629,12.42c0.135,3.482,0.075,6.964,0.002,10.446
			c-0.206,9.797-0.266,19.609-0.668,29.401c-0.357,8.701-1.489,17.393-2.388,26.05c-0.437,4.204-1.715,8.294-1.997,12.509
			c-0.206,3.077,0.428,6.026,1.956,8.712c1.241,2.181,2.781,3.682,4.939,4.899c1.945,1.097,2.691,3.055,3.142,5.16
			c0.636,2.968-0.003,5.221-0.912,8.051c-0.533,1.659-1.427,4.095-0.494,5.802c0.622,1.139,1.822,2.031,2.69,2.975
			c1.415,1.538,3.035,2.859,4.529,4.316c0.954,0.93,1.655,2.144,2.659,3.003c0.655,0.56,1.485,0.811,2.313,0.986
			c3.954,0.834,8.225,0.514,12.232,0.511c2.5-0.002,5.616,0.396,7.906-0.891c5.24-2.945,0.073-10.198-2.202-13.169
			c-1.198-1.564-2.121-3.262-3.088-4.974c-0.848-1.499-1.961-2.855-2.711-4.406c-1.073-2.222-0.725-4.678-0.885-7.067
			c-0.364-5.459-6.492-8.022-7.725-13.183c-0.244-1.022-0.22-2.078-0.156-3.121c0.122-1.989,0.178-3.911-0.042-5.897
			c-0.457-4.139-1.053-8.171-0.977-12.35c0.176-9.688,1.103-19.384,1.723-29.049c0.213-3.316,0.263-6.712,0.802-9.993
			c0.611-3.718,2.163-7.286,3.839-10.636c1.716-3.429,3.732-6.777,6.271-9.664c0.952,6.138,2.329,12.202,3.283,18.342
			c1.079,6.943,2.055,13.902,3.067,20.855c0.8,5.496,1.667,10.978,2.895,16.397c0.69,3.046,1.483,6.073,1.995,9.156
			c0.465,2.798,0.669,5.638,0.766,8.471c0.11,3.216,0.076,6.424,0.034,9.641c-0.019,1.445,0.052,2.819,0.675,4.142
			c0.465,0.987,1.114,1.886,1.516,2.903c0.257,0.649,0.325,1.341,0.533,2.003c0.502,1.605,2.114,2.535,3.24,3.667
			c1.18,1.186,1.899,2.852,3.437,3.64c1.571,0.805,3.391,0.977,4.928,1.876c1.758,1.028,2.255,2.702,1.967,4.659
			c-0.409,2.776-2.811,5.318-2.096,8.206c0.604,2.439,2.242,3.775,4.243,5.076c1.47,0.956,2.566,2.377,4.103,3.251
			c2.023,1.15,4.435,1.675,6.723,1.947c2.824,0.335,5.745,0.178,8.569-0.087c2.363-0.221,4.806-0.569,7.011-1.488
			c2.232-0.931,4.136-2.776,3.846-5.373c-0.154-1.381-0.851-2.666-1.577-3.823c-1.549-2.471-3.549-4.624-5.092-7.099
			c-1.525-2.446-2.282-5.035-2.913-7.821c-0.397-1.751-0.83-3.516-1.838-5.028c-2.392-3.59-6.839-4.635-9.685-7.69
			c-1.147-1.231-1.712-2.788-2.112-4.396c-0.652-2.619-1.146-5.181-2.16-7.697c-1.061-2.631-2.293-5.216-2.881-8.008
			c-0.603-2.863-0.712-5.818-1.006-8.722c-0.657-6.483-1.88-12.905-2.96-19.326c-0.819-4.867-2.077-9.9-0.929-14.812
			c1.292-5.529,4.003-10.618,5.349-16.15c0.728-2.991,1.368-6.023,2.466-8.907c0.956-2.512,2.288-4.865,3.76-7.108
			c3.424-5.215,7.459-9.997,10.992-15.137c3.322-4.833,6.178-9.924,8.583-15.272c2.583-5.744,4.972-11.675,8.404-16.981
			c1.464-2.263,3.105-4.415,4.967-6.366c1.893-1.984,4.102-3.65,5.919-5.707c0.28-0.317,0.542-0.81,0.871-1.069
			c0.275-0.217,0.242-0.181,0.622-0.031c0.222,0.087,0.445,0.173,0.67,0.251c0.619,0.215,1.255,0.387,1.906,0.466
			c1.101,0.133,2.19-0.03,3.245-0.354c2.193-0.673,4.22-1.89,6.115-3.156c1.803-1.205,3.648-2.716,5.777-3.316
			c3.882-1.095,7.35,3.034,10.12,5.035c4.689,3.388,9.944,5.855,15.398,7.737c5.852,2.019,11.895,3.483,17.959,4.697
			c5.978,1.197,12.019,2.123,18.082,2.764c6.08,0.643,12.188,1.032,18.301,1.141c5.551,0.098,11.097,0.028,16.644-0.206
			c6.986-0.295,13.976-0.692,20.966-0.874c6.161-0.161,12.318-0.189,18.417,0.83c2.752,0.46,5.531,1.049,8.174,1.954
			c1.589,0.544,3.213,1.257,4.424,2.455c1.108,1.096,1.676,2.555,2.051,4.04c0.702,2.786,1.054,5.673,1.615,8.492
			c0.598,3.001,1.264,6.014,1.498,9.071c0.219,2.861-0.138,5.679-0.529,8.508c-0.897,6.483-1.314,13.008-1.813,19.532
			c-0.212,2.773-0.41,5.549-0.729,8.313c-0.303,2.62-1.022,5.295-0.939,7.942c0.063,2.008,0.917,3.869,1.563,5.739
			c0.833,2.413,1.272,4.879,1.431,7.424c0.334,5.353-0.139,10.734-0.467,16.076c-0.449,7.313-0.869,14.629-1.348,21.94
			c-0.184,2.81-0.375,5.627-0.737,8.42c-0.166,1.286-0.375,2.566-0.719,3.817c-0.234,0.85-0.534,1.695-0.63,2.576
			c-0.343,3.155,1.395,6.823,3.309,9.22c2.32,2.904,6.383,3.988,7.959,7.515c0.593,1.327,0.863,2.809,0.792,4.26
			c-0.092,1.881-0.906,3.494-1.71,5.163c-1.288,2.675-1.548,5.309-0.116,8.003c1.79,3.369,5.461,5.285,8.974,6.359
			c2.684,0.821,5.485,1.205,8.27,1.48c3.154,0.311,6.319,0.586,9.483,0.774c2.95,0.176,5.885,0.014,8.835-0.075
			c2.756-0.083,5.585-0.07,8.306-0.553c1.245-0.221,2.641-0.509,3.172-1.799c0.349-0.849,0.353-1.848,0.218-2.742
			c-0.485-3.2-3.179-5.187-5.698-6.88c-4.137-2.782-8.735-5.49-10.959-10.18c-0.921-1.941-1.017-3.981-1.2-6.092
			c-0.158-1.822-0.567-3.507-1.426-5.128c-1.017-1.919-2.438-3.65-4.09-5.056c-1.692-1.44-3.602-2.565-4.914-4.4
			c-1.343-1.879-2.059-4.15-2.64-6.361c-0.749-2.851-1.232-5.77-1.621-8.689c-0.8-6.01-1.167-12.089-1.231-18.15
			c-0.064-6.085,0.317-12.138,1.303-18.146c0.255-1.552,0.391-3.286,0.863-4.784c0.44-1.398,1.272-2.719,1.861-4.068
			c0.999-2.287,1.678-4.641,1.952-7.126c0.666-6.039,0.125-12.179,0.342-18.242c0.202-5.646,1.127-11.231,2.372-16.735
			c1.416-6.262,2.922-12.5,3.998-18.831c0.878-5.166,1.34-11.095,4.113-15.682c2.4-3.971,7.026-5.172,10.539-7.856
			c4.605-3.518,7.298-9.168,10.56-13.819c3.382-4.822,7.146-9.386,11.168-13.687c4.122-4.407,8.615-8.414,13.396-12.091
			c4.912-3.778,10.026-7.287,14.979-11.011c4.855-3.649,9.499-7.54,13.759-11.876c4.44-4.519,8.543-9.356,12.971-13.886
			c4.177-4.273,8.639-8.25,13.173-12.137c2.486-2.131,4.942-4.315,7.517-6.341c1.54-1.212,3.204-2.486,5.091-3.103
			c3.242-1.062,5.687,1.586,7.973,3.489c1.966,1.635,4.042,3.265,6.351,4.392c1.605,0.783,3.469,0.835,5.034,1.654
			c1.408,0.737,2.241,2.334,3.128,3.567c1.612,2.241,3.651,4.021,5.869,5.645c4.928,3.607,10.2,6.786,15.26,10.207
			c2.126,1.437,4.196,2.469,6.623,3.274c1.404,0.466,2.611,1.085,3.719,2.07c1.977,1.756,3.455,3.987,5.375,5.796
			c0.704,0.663,1.486,1.201,2.414,1.495c1.746,0.554,3.705,0.451,5.506,0.349c2.73-0.153,5.47-0.533,8.13-1.166
			C627.842,295.521,630.989,294.775,631.942,292.342z"/>
	</g>
	<g id="POLYLINE_24_">
		
			<path fill="none" stroke="#FB8604" stroke-width="3.25" stroke-linecap="round" stroke-linejoin="round" stroke-miterlimit="10" d="
			M812.724,536.4c0.192,1.191,0.363,2.704,1.447,3.448c1.468,1.009,3.747,0.992,5.428,1.077c2.225,0.112,4.678,0.241,6.845-0.377
			c1.082-0.308,2.094-0.921,2.475-2.033c0.481-1.403-0.056-3.096-0.416-4.449c-0.858-3.231-1.639-6.464-2.385-9.722
			c-0.567-2.474-1.305-4.789-2.55-7.007c-1.424-2.537-3.276-4.89-4.536-7.507c-1.452-3.016-0.118-6.534-1.415-9.598
			c-0.477-1.126-1.129-2.168-1.596-3.299c-0.466-1.128-0.783-2.308-1.046-3.497c-0.685-3.105-1.051-6.281-1.417-9.437
			c-0.378-3.259-0.683-6.528-0.976-9.795c-0.27-3.011-0.852-6.186-0.581-9.202c0.258-2.868,0.799-5.564,2.023-8.182
			c1.141-2.442,2.228-4.758,2.583-7.455c0.748-5.69-0.775-11.311-0.817-16.996c-0.046-6.246,0.569-12.513,1.334-18.704
			c0.776-6.273,1.8-12.523,3.464-18.627c1.574-5.777,3.398-11.33,3.778-17.347c0.205-3.249,0.171-6.506,0.282-9.758
			c0.052-1.534-0.074-3.301,0.257-4.8c0.319-1.441,1.29-2.91,1.848-4.296c2.348-5.826,3.658-12.051,5.099-18.146
			c1.459-6.172,2.9-12.331,3.71-18.629c0.803-6.246,1.399-12.575,1.275-18.879c-0.03-1.509-0.092-3.018-0.194-4.523
			c-0.035-0.516-0.074-1.031-0.112-1.546c-0.014-0.194-0.194-0.977-0.084-1.158c0.065-0.105,0.489-0.227,0.611-0.301
			c1.513-0.922,2.082-2.812,2.897-4.276c1.201-2.161,2.847-3.766,4.728-5.333c1.569-1.308,3.448-2.625,4.438-4.473
			c1.66-3.099-0.091-7.023-1.107-10.014c-1.987-5.851-3.621-11.803-3.946-18.006c-0.312-5.976,0.448-11.929,1.402-17.816
			c0.556-3.432,1.22-6.867,1.55-10.331c0.278-2.917,0.221-5.846-0.012-8.764c-0.202-2.525-0.736-5.239-0.318-7.773
			c0.243-1.47,0.979-2.449,2.151-3.334c1.124-0.849,2.21-1.623,2.886-2.888c0.544-1.018,0.831-2.175,0.903-3.324
			c0.066-1.044-0.066-2.088-0.398-3.08c-0.668-1.996-2.081-3.395-3.325-5.037c-1.422-1.878-2.343-4.081-3.263-6.233
			c-1.382-3.235-2.952-6.448-4.126-9.767c-1.565-4.427-0.74-9.386,0.656-13.753c0.866-2.709,2.226-4.98,3.791-7.337
			c1.214-1.829,1.988-3.694,2.438-5.843c0.62-2.963,0.839-6.012,1.136-9.02c0.268-2.71,0.604-5.523,0.236-8.239
			c-0.164-1.213-0.52-2.653-1.736-3.218c-0.834-0.388-1.826-0.27-2.695-0.077c-5.26,1.166-9.942,5.412-12.72,9.859
			c-1.594,2.551-2.765,5.334-3.751,8.167c-0.885,2.544-1.465,5.323-2.786,7.694c-1.076,1.932-2.836,2.945-5.052,2.816
			c-1.156-0.067-2.26-0.568-2.904-1.581c-0.526-0.828-0.343-2.118-1.606-1.997c-1.324,0.127-2.108,0.437-2.394-1.14
			c-0.073-0.403,0.021-1.658-0.56-1.32c-0.588,0.341-0.704,1.349-1.3,1.737c-0.972,0.631-1.236-1.356-1.272-1.951
			c-0.065-1.067,0.117-2.136,0.118-3.204c0.001-1.26-0.142-2.536-0.427-3.763c-0.149-0.642-0.58-2.568-1.407-1.445
			c-0.26,0.352-0.651,1.754-1.2,1.824c-0.469,0.06-0.701-0.866-0.82-1.184c-0.108-0.289-0.465-1.987-0.978-1.689
			c-0.223,0.13-0.35,0.858-0.419,1.068c-0.133,0.408-0.244,0.859-0.454,1.239c-0.788,1.427-1.846-1.265-2.148-1.799
			c-0.267-0.471-0.556-1.002-0.685-0.23c-0.158,0.944,0.196,2.001-0.066,2.926c-0.162,0.573-0.367,0.367-0.663-0.049
			c-0.625-0.881-0.992-1.927-1.57-2.839c-0.267-0.422-0.512-0.747-0.633-0.102c-0.164,0.872,0.105,1.937,0.219,2.798
			c0.098,0.741,1.122,3.912-0.542,3.659c-0.529-0.08-1.363-0.699-1.865-0.55c-0.534,0.158,0.178,0.902,0.396,1.193
			c0.758,1.009,1.611,1.949,2.301,3.008c0.601,0.923,1.024,1.932,1.484,2.928c-4.281-0.447-7.364-4.064-10.091-7.05
			c-2.096-2.294-4.122-4.655-6.277-6.894c-2.075-2.155-4.355-4.057-6.658-5.96c-2.04-1.686-3.849-3.5-5.425-5.631
			c-1.719-2.324-3.288-4.759-5.211-6.926c-1.19-1.342-4.883-5.701-7.062-3.673c-1.445,1.346-1.705,4.14-1.3,5.952
			c0.565,2.529,2.107,4.958,3.228,7.256c1.255,2.573,2.284,5.202,3.212,7.908c0.89,2.594,1.803,5.186,3.331,7.486
			c1.646,2.478,3.822,4.576,5.873,6.711c1.835,1.911,3.676,3.865,4.993,6.182c1.402,2.469,2.166,5.211,3.259,7.816
			c1.052,2.507,2.672,4.649,3.986,7.011c0.643,1.156,1.21,2.416,1.051,3.769c-0.2,1.703-1.259,3.257-2.016,4.742
			c-1.368,2.686-2.508,5.481-3.68,8.256c-2.34,5.536-4.811,10.981-6.521,16.753c-0.435,1.467-0.843,2.945-1.401,4.371
			c-0.517,1.321-1.226,2.539-1.884,3.792c-0.307,0.585-0.595,1.18-0.847,1.791c-0.083,0.203-0.174,0.737-0.332,0.871
			c-0.245,0.207-0.866,0.039-1.239,0.004c-1.345-0.124-2.692-0.204-4.043-0.135c-5.515,0.28-11.016,2.49-16.074,4.553
			c-5.58,2.277-10.86,5.042-15.681,8.677c-4.689,3.536-9.138,7.682-12.363,12.624c-2.637,4.04-4.156,8.646-4.853,13.402
			c-0.851,5.814-0.375,11.684-0.803,17.524c-0.423,5.773-3.032,10.932-4.575,16.441c-1.581,5.643-2.604,11.455-3.062,17.297
			c-0.458,5.85-0.283,11.746,0.589,17.552c0.841,5.602,2.338,11.124,4.577,16.331c2.297,5.342,5.433,10.251,9.162,14.706
			c3.795,4.534,8.141,8.623,12.851,12.194c1.096,0.831,2.213,1.635,3.354,2.404c0.594,0.4,1.194,0.791,1.801,1.171
			c0.658,0.412,0.939,0.508,1.184,1.243c0.988,2.968,1.997,5.928,3.185,8.823c2.192,5.341,5.422,10.244,7.23,15.739
			c1.88,5.716,1.855,11.65,2.472,17.571c0.288,2.771,0.761,5.521,1.414,8.229c0.701,2.907,1.752,5.691,2.585,8.558
			c1.59,5.474,0.952,11.254,1.027,16.877c0.086,6.39,0.31,12.775,0.293,19.166c-0.016,6.125-0.189,12.258-0.49,18.376
			c-0.287,5.832-0.44,11.888-1.855,17.581c-0.466,1.875-0.888,3.419-0.659,5.352c0.228,1.925,0.698,3.873,0.466,5.822
			c-0.533,4.484-4.063,8.082-4.434,12.623c-0.082,1.004,0.002,2.013-0.125,3.014c-0.148,1.169-0.474,2.309-0.633,3.478
			c-0.177,1.303-0.339,2.912,0.432,4.069c0.579,0.869,1.571,1.231,2.562,1.384c2.416,0.372,5.053,0.148,7.488,0.086
			c2.183-0.055,3.852-0.642,4.956-2.612c1.106-1.974,1.628-4.322,2.102-6.513c0.087-0.404,0.386-1.078,0.3-1.495
			c-0.031-0.151-0.224-0.317-0.308-0.473c-0.403-0.753-0.476-1.822-0.571-2.65c-0.19-1.656-0.178-3.381,0.375-4.971
			c0.673-1.935,1.977-3.578,2.627-5.526c0.346-1.037,0.542-2.12,0.66-3.205c0.146-1.337,0.361-2.902-0.037-4.196
			c-0.785-2.555-1.373-5.122-1.537-7.797c-0.137-2.234-0.077-4.473-0.031-6.709c0.084-4.151,0.169-8.301,0.253-12.452
			c0.118-5.799,0.239-11.597,0.388-17.395c1.621,4.162,2.185,8.578,2.652,12.992c0.507,4.799,1.183,9.61,1.356,14.436
			c0.077,2.153-0.028,4.294-0.359,6.424c-0.349,2.254-0.959,4.471-1.186,6.742c-0.139,1.394-0.085,2.772,0.236,4.136
			c0.46,1.96,1.366,3.774,1.882,5.715c0.746,2.807-0.797,4.783-1.731,7.346c-0.572,1.57-0.671,3.219-0.689,4.876
			c-0.029,2.702,0.029,5.406,0.048,8.108c0.013,1.809-0.152,3.965,1.917,4.608c1.395,0.434,2.951,0.391,4.393,0.451
			c2.296,0.096,4.61,0.188,6.903-0.009c1.96-0.168,4.25-0.513,4.8-2.711c0.358-1.43,0.163-3.057,0.16-4.505
			c-0.004-2.284,0.036-4.586-0.234-6.859c-0.399-3.354-2.403-6.19-2.888-9.495c-0.179-1.22-0.076-2.47,0.264-3.654
			c0.421-1.465,1.249-2.779,1.606-4.266c0.755-3.15-0.292-6.364-1.34-9.313c-0.785-2.21-1.608-4.404-2.165-6.686
			c-0.57-2.337-0.897-4.729-1.114-7.123c-0.425-4.678-0.522-9.445-0.27-14.136c0.251-4.659,1.412-9.035,2.606-13.522
			c1.099-4.128,1.99-8.381,1.761-12.679c-0.088-1.648-0.373-3.258-0.997-4.791c-0.829-2.035-1.978-3.916-2.77-5.973
			c-1.688-4.381-2.501-9.007-3.387-13.599c-0.876-4.54-2.114-9.022-2.79-13.598c-0.647-4.374-0.728-8.833-0.48-13.242
			c0.144-2.555,0.402-5.104,0.625-7.653c0.168-1.917,0.203-3.944,0.668-5.821c0.14-0.564,0.36-1.494,1.094-1.453
			c0.398,0.022,0.799,0.384,1.091,0.618c0.688,0.551,1.301,1.192,2.023,1.702c1.79,1.264,3.398,1.021,5.305,0.217
			c0.856-0.361,2.043-1.105,3.047-0.989c0.771,0.089,1.124,0.805,1.389,1.45c1.51,3.675,1.949,8.072,1.758,12.01
			c-0.226,4.649-0.951,9.256-1.132,13.913c-0.193,4.938-0.267,9.881-0.483,14.818c-0.191,4.382-0.444,8.777-1.77,12.984
			c-0.62,1.966-1.132,3.827-1.185,5.9c-0.05,1.94,0.123,3.891,0.428,5.805c0.34,2.138,0.903,4.215,1.818,6.18
			c0.891,1.915,1.973,3.738,2.6,5.767c1.273,4.12,1.24,8.686,1.323,12.958c0.095,4.888,0.16,9.817-0.117,14.7
			c-0.101,1.78-0.278,3.589-0.844,5.289c-0.595,1.784-1.685,3.347-2.331,5.109c-1.105,3.013-0.755,6.566-0.186,9.656
			c0.28,1.519,0.852,2.855,1.421,4.283c0.454,1.139,0.693,2.245,0.401,3.458c-0.799,3.324-3.182,6.133-3.728,9.553
			c-0.302,1.886-0.071,3.919-0.029,5.815c0.044,2.004,0.118,4.04,0.455,6.02c0.353,2.074,1.108,3.581,3.346,3.801
			c2.17,0.214,4.418,0.113,6.593,0.044c1.797-0.057,3.721-0.087,5.463-0.59C811.932,539.743,812.466,538.181,812.724,536.4z"/>
	</g>
</g>
</svg>
